<svg id="SvgjsSvg2238" width="288" height="288" xmlns="http://www.w3.org/2000/svg" version="1.1" xmlns:xlink="http://www.w3.org/1999/xlink" xmlns:svgjs="http://svgjs.com/svgjs"><defs id="SvgjsDefs2239"></defs><g id="SvgjsG2240"><svg xmlns="http://www.w3.org/2000/svg" xmlns:xlink="http://www.w3.org/1999/xlink" width="288" height="288" enable-background="new 0 0 128 128"><symbol id="h" viewBox="-64.5 -64.5 129 129"><rect width="128" height="128" x="-64" y="-64" fill="none" stroke="#4285f4" stroke-miterlimit="10" class="colorStroke4285f4 svgStroke"></rect><path fill="none" stroke="#4285f4" stroke-miterlimit="10" d="M36.95,37.82C27.32,46.32,14.2,51,0,51 c-14.27,0-27.39-4.62-36.96-13.01C-47.45,28.79-53,15.65-53,0c0-15.58,5.55-28.69,16.04-37.92C-27.36-46.35-14.24-51,0-51 c14.17,0,27.29,4.71,36.95,13.25C47.45-28.45,53-15.4,53,0C53,15.47,47.45,28.55,36.95,37.82z" class="colorStroke4285f4 svgStroke"></path><path fill="none" stroke="#4285f4" stroke-miterlimit="10" d="M0,55L0,55L0,55c-29.59,0-57-19.01-57-55 c0-35.8,27.41-55,57-55h0h0c29.59,0,57,19.69,57,55C57,35.51,29.59,55,0,55z" class="colorStroke4285f4 svgStroke"></path><path fill="none" stroke="#4285f4" stroke-miterlimit="10" d="M0-43c-12.29,0-23.54,3.94-31.68,11.09 C-40.39-24.25-45-13.21-45,0c0,29.7,22.6,43,45,43c21.67,0,45-13.46,45-43S21.67-43,0-43L0-43z" class="colorStroke4285f4 svgStroke"></path><line x1="-.01" x2="-.01" y1="51" y2="-51" fill="none" stroke="#4285f4" stroke-miterlimit="10" class="colorStroke4285f4 svgStroke"></line><line x1="-16" x2="-16" y1="48.95" y2="-48.93" fill="none" stroke="#4285f4" stroke-miterlimit="10" class="colorStroke4285f4 svgStroke"></line><line x1="15.99" x2="15.99" y1="48.91" y2="-48.93" fill="none" stroke="#4285f4" stroke-miterlimit="10" class="colorStroke4285f4 svgStroke"></line><line x1="53" x2="-53" y1=".08" y2=".08" fill="none" stroke="#4285f4" stroke-miterlimit="10" class="colorStroke4285f4 svgStroke"></line></symbol><linearGradient id="a" x1="64" x2="64" y1="19.717" y2="107.702" gradientUnits="userSpaceOnUse"><stop offset=".5" stop-color="#fee133" class="stopColorfee133 svgShape"></stop><stop offset=".612" stop-color="#fede32" class="stopColorfede32 svgShape"></stop><stop offset=".708" stop-color="#fcd32f" class="stopColorfcd32f svgShape"></stop><stop offset=".797" stop-color="#fac12b" class="stopColorfac12b svgShape"></stop><stop offset=".883" stop-color="#f7a924" class="stopColorf7a924 svgShape"></stop><stop offset=".9" stop-color="#f6a323" class="stopColorf6a323 svgShape"></stop></linearGradient><path fill="url(#a)" d="M64,119.89C36.07,119.89,6,102.4,6,64S36.07,8.11,64,8.11c15.48,0,29.81,5.12,40.36,14.43 C115.9,32.72,122,47.06,122,64c0,16.86-6.1,31.17-17.64,41.39C93.78,114.74,79.45,119.89,64,119.89z"></path><path fill="#f02e65" d="M64,10.11L64,10.11c14.99,0,28.86,4.95,39.03,13.93C114.13,33.83,120,47.65,120,64 c0,16.27-5.87,30.07-16.97,39.89c-10.21,9.03-24.07,14-39.03,14c-15.04,0-28.9-4.91-39.04-13.82C13.86,94.32,8,80.46,8,64 c0-16.54,5.86-30.42,16.96-40.15C35.07,14.99,48.93,10.11,64,10.11 M64,6.11L64,6.11L64,6.11L64,6.11C32.85,6.11,4,26.11,4,64 c0,37.68,28.85,57.89,60,57.89h0h0h0c31.15,0,60-20.73,60-57.89C124,26.63,95.15,6.11,64,6.11L64,6.11z" class="coloreb8f00 svgShape"></path><g fill="#000000" class="color000 svgShape"><defs><path id="b" d="M63.47,62.53c-15.71,0-30.31-1.32-42.49-3.57c-3.02-0.56-5.69,2.1-5.08,5.11 c4.04,19.81,23.55,36.08,47.55,36.08c26.27,0,43.94-16.8,47.61-36.15c0.57-2.99-2.1-5.6-5.09-5.04 C93.79,61.21,79.19,62.53,63.47,62.53z" fill="#000000" class="color000 svgShape"></path></defs><clipPath id="c"><use overflow="visible" xlink:href="#b"></use></clipPath><path fill="#242424" d="M63.47,62.53c-15.71,0-30.31-1.32-42.49-3.57 c-3.02-0.56-5.69,2.1-5.08,5.11c4.04,19.81,23.55,36.08,47.55,36.08c26.27,0,43.94-16.8,47.61-36.15c0.57-2.99-2.1-5.6-5.09-5.04 C93.79,61.21,79.19,62.53,63.47,62.53z" clip-path="url(#c)" class="color242424 svgShape"></path><path fill="#ffffff" d="M116.72,61.38V46.49H10.24v14.89C26.61,71,44.6,76.35,63.48,76.35 S100.34,71,116.72,61.38z" clip-path="url(#c)" class="colorfff svgShape"></path><path fill="#f02e65" d="M63.48,86.42c-11.78,0-22.05,6.42-27.53,15.95 c7.12,3.89,16.83,6.29,27.53,6.29s20.41-2.4,27.53-6.29C85.53,92.84,75.26,86.42,63.48,86.42z" clip-path="url(#c)" class="colored7770 svgShape"></path><g clip-path="url(#c)" fill="#000000" class="color000 svgShape"><defs><path id="d" d="M10.24,46.49v14.89C26.62,71,44.6,76.35,63.48,76.35c18.88,0,36.86-5.35,53.24-14.97V46.49H10.24z M63.48,86.42c-11.78,0-22.05,6.42-27.53,15.95c7.12,3.89,16.83,6.29,27.53,6.29c10.71,0,20.41-2.4,27.53-6.29 C85.53,92.84,75.26,86.42,63.48,86.42z" fill="#000000" class="color000 svgShape"></path></defs><clipPath id="e"><use overflow="visible" xlink:href="#d"></use></clipPath><g clip-path="url(#e)" fill="#000000" class="color000 svgShape"><path fill="#f02e65" d="M106.79,63.09c0.07,0,0.14,0.07,0.14,0.12c-1.68,8.85-6.6,16.96-13.85,22.84 c-7.97,6.46-18.21,9.88-29.63,9.88c-10.46,0-20.64-3.45-28.67-9.72c-7.72-6.03-12.96-14.19-14.76-23.02 c0.01-0.02,0.07-0.1,0.18-0.1c0,0,0.01,0,0.01,0c12.86,2.38,27.82,3.64,43.26,3.64c15.44,0,30.41-1.26,43.28-3.65 C106.76,63.09,106.78,63.09,106.79,63.09 M106.79,58.88c-0.27,0-0.54,0.02-0.81,0.08c-12.18,2.26-26.79,3.58-42.51,3.58 c-15.71,0-30.31-1.32-42.49-3.57c-0.27-0.05-0.54-0.08-0.81-0.08c-2.67,0-4.83,2.44-4.27,5.18 c4.04,19.81,23.55,36.08,47.55,36.08c26.27,0,43.94-16.8,47.61-36.15C111.58,61.28,109.43,58.88,106.79,58.88L106.79,58.88z" class="coloreb8f00 svgShape"></path></g></g></g><g fill="#000000" class="color000 svgShape"><path fill="#f02e65" stroke="#f02e65" stroke-miterlimit="10" stroke-width="4" d="M32.08 17.13l8.06 10.7c.4.53 1.03.82 1.68.79l13.38-.57c1.66-.07 2.67 1.79 1.72 3.15l-7.69 10.97c-.38.54-.47 1.23-.24 1.85l4.68 12.55c.58 1.55-.87 3.1-2.46 2.61l-12.81-3.92c-.63-.19-1.31-.06-1.83.35L26.1 63.93c-1.3 1.03-3.21.13-3.24-1.53L22.63 49c-.01-.66-.35-1.27-.89-1.63l-11.16-7.4c-1.38-.92-1.11-3.02.45-3.56l12.67-4.36c.62-.21 1.1-.72 1.28-1.36l3.59-12.9C29 16.2 31.08 15.8 32.08 17.13zM95.92 17.13l-8.06 10.7c-.4.53-1.03.82-1.68.79L72.8 28.05c-1.66-.07-2.67 1.79-1.72 3.15l7.69 10.97c.38.54.47 1.23.24 1.85l-4.68 12.55c-.58 1.55.87 3.1 2.46 2.61l12.81-3.92c.63-.19 1.31-.06 1.83.35l10.49 8.33c1.3 1.03 3.21.13 3.24-1.53L105.37 49c.01-.66.35-1.27.89-1.63l11.16-7.4c1.38-.92 1.11-3.02-.45-3.56l-12.67-4.36c-.62-.21-1.1-.72-1.28-1.36l-3.59-12.9C99 16.2 96.92 15.8 95.92 17.13z" class="colorcc1775 svgShape colorStrokeb3005c svgStroke"></path></g><g display="none" fill="#000000" class="color000 svgShape"><g opacity=".6" fill="#000000" class="color000 svgShape"><circle cx="64" cy="64" r="28" fill="none" stroke="#000000" stroke-miterlimit="10" stroke-width=".263" opacity=".61" class="colorStroke000 svgStroke"></circle><line x1="84" x2="84" y2="128" fill="none" stroke="#000000" stroke-miterlimit="10" stroke-width=".25" opacity=".61" class="colorStroke000 svgStroke"></line><line x1="44" x2="44" y2="128" fill="none" stroke="#000000" stroke-miterlimit="10" stroke-width=".25" opacity=".61" class="colorStroke000 svgStroke"></line><line x1="64" x2="64" y2="128" fill="none" stroke="#000000" stroke-miterlimit="10" stroke-width=".25" opacity=".61" class="colorStroke000 svgStroke"></line><line x1="128" y1="64" y2="64" fill="none" stroke="#000000" stroke-miterlimit="10" stroke-width=".25" opacity=".61" class="colorStroke000 svgStroke"></line><line x1="128" y1="44" y2="44" fill="none" stroke="#000000" stroke-miterlimit="10" stroke-width=".25" opacity=".61" class="colorStroke000 svgStroke"></line><line x1="128" y1="83.75" y2="83.75" fill="none" stroke="#000000" stroke-miterlimit="10" stroke-width=".25" opacity=".61" class="colorStroke000 svgStroke"></line><line x1="128" y1="128" fill="none" stroke="#000000" stroke-miterlimit="10" stroke-width=".25" opacity=".61" class="colorStroke000 svgStroke"></line><line x2="128" y1="128" fill="none" stroke="#000000" stroke-miterlimit="10" stroke-width=".25" opacity=".61" class="colorStroke000 svgStroke"></line><path d="M64,4.26c32.94,0,59.74,26.8,59.74,59.74S96.94,123.74,64,123.74S4.26,96.94,4.26,64S31.06,4.26,64,4.26 M64,4 C30.86,4,4,30.86,4,64s26.86,60,60,60s60-26.86,60-60S97.14,4,64,4L64,4z" opacity=".61" fill="#000000" class="color000 svgShape"></path><path fill="none" stroke="#000000" stroke-miterlimit="10" stroke-width=".258" d="M107.97,115.97H20.03 c-4.42,0-8.03-3.61-8.03-8.03V20.03c0-4.42,3.61-8.03,8.03-8.03h87.94c4.42,0,8.03,3.61,8.03,8.03v87.91 C116,112.36,112.39,115.97,107.97,115.97z" opacity=".61" class="colorStroke000 svgStroke"></path><path fill="none" stroke="#000000" stroke-miterlimit="10" stroke-width=".263" d="M100,124H28c-4.4,0-8-3.6-8-8 V12c0-4.4,3.6-8,8-8h72c4.4,0,8,3.6,8,8v104C108,120.4,104.4,124,100,124z" opacity=".61" class="colorStroke000 svgStroke"></path><path fill="none" stroke="#000000" stroke-miterlimit="10" stroke-width=".263" d="M113.77,108H14.23 C8.6,108,4,103.4,4,97.77V30.28c0-5.63,4.6-10.23,10.23-10.23h99.54c5.63,0,10.23,4.6,10.23,10.23v67.48 C124,103.4,119.4,108,113.77,108z" opacity=".61" class="colorStroke000 svgStroke"></path></g><g opacity=".2" fill="#000000" class="color000 svgShape"><defs><rect id="f" width="128" height="128" x="0" y="0" opacity=".2" fill="#000000" class="color000 svgShape"></rect></defs><clipPath id="g"><use overflow="visible" xlink:href="#f"></use></clipPath><g clip-path="url(#g)" fill="#000000" class="color000 svgShape"><line x1="-28" x2="-28" y1="160" y2="-32" fill="none" stroke="#000000" stroke-miterlimit="10" stroke-width=".25" class="colorStroke000 svgStroke"></line><line x1="-24" x2="-24" y1="160" y2="-32" fill="none" stroke="#000000" stroke-miterlimit="10" stroke-width=".25" class="colorStroke000 svgStroke"></line><line x1="-20" x2="-20" y1="160" y2="-32" fill="none" stroke="#000000" stroke-miterlimit="10" stroke-width=".25" class="colorStroke000 svgStroke"></line><line x1="-16" x2="-16" y1="160" y2="-32" fill="none" stroke="#000000" stroke-miterlimit="10" stroke-width=".25" class="colorStroke000 svgStroke"></line><line x1="-12" x2="-12" y1="160" y2="-32" fill="none" stroke="#000000" stroke-miterlimit="10" stroke-width=".25" class="colorStroke000 svgStroke"></line><line x1="-8" x2="-8" y1="160" y2="-32" fill="none" stroke="#000000" stroke-miterlimit="10" stroke-width=".25" class="colorStroke000 svgStroke"></line><line x1="-4" x2="-4" y1="160" y2="-32" fill="none" stroke="#000000" stroke-miterlimit="10" stroke-width=".25" class="colorStroke000 svgStroke"></line><line y1="160" y2="-32" fill="none" stroke="#000000" stroke-miterlimit="10" stroke-width=".25" class="colorStroke000 svgStroke"></line><line x1="4" x2="4" y1="160" y2="-32" fill="none" stroke="#000000" stroke-miterlimit="10" stroke-width=".25" class="colorStroke000 svgStroke"></line><line x1="8" x2="8" y1="160" y2="-32" fill="none" stroke="#000000" stroke-miterlimit="10" stroke-width=".25" class="colorStroke000 svgStroke"></line><line x1="12" x2="12" y1="160" y2="-32" fill="none" stroke="#000000" stroke-miterlimit="10" stroke-width=".25" class="colorStroke000 svgStroke"></line><line x1="16" x2="16" y1="160" y2="-32" fill="none" stroke="#000000" stroke-miterlimit="10" stroke-width=".25" class="colorStroke000 svgStroke"></line><line x1="20" x2="20" y1="160" y2="-32" fill="none" stroke="#000000" stroke-miterlimit="10" stroke-width=".25" class="colorStroke000 svgStroke"></line><line x1="24" x2="24" y1="160" y2="-32" fill="none" stroke="#000000" stroke-miterlimit="10" stroke-width=".25" class="colorStroke000 svgStroke"></line><line x1="28" x2="28" y1="160" y2="-32" fill="none" stroke="#000000" stroke-miterlimit="10" stroke-width=".25" class="colorStroke000 svgStroke"></line><line x1="32" x2="32" y1="160" y2="-32" fill="none" stroke="#000000" stroke-miterlimit="10" stroke-width=".25" class="colorStroke000 svgStroke"></line><line x1="36" x2="36" y1="160" y2="-32" fill="none" stroke="#000000" stroke-miterlimit="10" stroke-width=".25" class="colorStroke000 svgStroke"></line><line x1="40" x2="40" y1="160" y2="-32" fill="none" stroke="#000000" stroke-miterlimit="10" stroke-width=".25" class="colorStroke000 svgStroke"></line><line x1="44" x2="44" y1="160" y2="-32" fill="none" stroke="#000000" stroke-miterlimit="10" stroke-width=".25" class="colorStroke000 svgStroke"></line><line x1="48" x2="48" y1="160" y2="-32" fill="none" stroke="#000000" stroke-miterlimit="10" stroke-width=".25" class="colorStroke000 svgStroke"></line><line x1="52" x2="52" y1="160" y2="-32" fill="none" stroke="#000000" stroke-miterlimit="10" stroke-width=".25" class="colorStroke000 svgStroke"></line><line x1="56" x2="56" y1="160" y2="-32" fill="none" stroke="#000000" stroke-miterlimit="10" stroke-width=".25" class="colorStroke000 svgStroke"></line><line x1="60" x2="60" y1="160" y2="-32" fill="none" stroke="#000000" stroke-miterlimit="10" stroke-width=".25" class="colorStroke000 svgStroke"></line><line x1="64" x2="64" y1="160" y2="-32" fill="none" stroke="#000000" stroke-miterlimit="10" stroke-width=".25" class="colorStroke000 svgStroke"></line><line x1="68" x2="68" y1="160" y2="-32" fill="none" stroke="#000000" stroke-miterlimit="10" stroke-width=".25" class="colorStroke000 svgStroke"></line><line x1="72" x2="72" y1="160" y2="-32" fill="none" stroke="#000000" stroke-miterlimit="10" stroke-width=".25" class="colorStroke000 svgStroke"></line><line x1="76" x2="76" y1="160" y2="-32" fill="none" stroke="#000000" stroke-miterlimit="10" stroke-width=".25" class="colorStroke000 svgStroke"></line><line x1="80" x2="80" y1="160" y2="-32" fill="none" stroke="#000000" stroke-miterlimit="10" stroke-width=".25" class="colorStroke000 svgStroke"></line><line x1="84" x2="84" y1="160" y2="-32" fill="none" stroke="#000000" stroke-miterlimit="10" stroke-width=".25" class="colorStroke000 svgStroke"></line><line x1="88" x2="88" y1="160" y2="-32" fill="none" stroke="#000000" stroke-miterlimit="10" stroke-width=".25" class="colorStroke000 svgStroke"></line><line x1="92" x2="92" y1="160" y2="-32" fill="none" stroke="#000000" stroke-miterlimit="10" stroke-width=".25" class="colorStroke000 svgStroke"></line><line x1="96" x2="96" y1="160" y2="-32" fill="none" stroke="#000000" stroke-miterlimit="10" stroke-width=".25" class="colorStroke000 svgStroke"></line><line x1="100" x2="100" y1="160" y2="-32" fill="none" stroke="#000000" stroke-miterlimit="10" stroke-width=".25" class="colorStroke000 svgStroke"></line><line x1="104" x2="104" y1="160" y2="-32" fill="none" stroke="#000000" stroke-miterlimit="10" stroke-width=".25" class="colorStroke000 svgStroke"></line><line x1="108" x2="108" y1="160" y2="-32" fill="none" stroke="#000000" stroke-miterlimit="10" stroke-width=".25" class="colorStroke000 svgStroke"></line><line x1="112" x2="112" y1="160" y2="-32" fill="none" stroke="#000000" stroke-miterlimit="10" stroke-width=".25" class="colorStroke000 svgStroke"></line><line x1="116" x2="116" y1="160" y2="-32" fill="none" stroke="#000000" stroke-miterlimit="10" stroke-width=".25" class="colorStroke000 svgStroke"></line><line x1="120" x2="120" y1="160" y2="-32" fill="none" stroke="#000000" stroke-miterlimit="10" stroke-width=".25" class="colorStroke000 svgStroke"></line><line x1="124" x2="124" y1="160" y2="-32" fill="none" stroke="#000000" stroke-miterlimit="10" stroke-width=".25" class="colorStroke000 svgStroke"></line><line x1="128" x2="128" y1="160" y2="-32" fill="none" stroke="#000000" stroke-miterlimit="10" stroke-width=".25" class="colorStroke000 svgStroke"></line><line x1="132" x2="132" y1="160" y2="-32" fill="none" stroke="#000000" stroke-miterlimit="10" stroke-width=".25" class="colorStroke000 svgStroke"></line><line x1="136" x2="136" y1="160" y2="-32" fill="none" stroke="#000000" stroke-miterlimit="10" stroke-width=".25" class="colorStroke000 svgStroke"></line><line x1="137" x2="137" y1="166.05" y2="-25.95" fill="none" stroke="#000000" stroke-miterlimit="10" stroke-width=".25" class="colorStroke000 svgStroke"></line><line x1="144" x2="144" y1="160" y2="-32" fill="none" stroke="#000000" stroke-miterlimit="10" stroke-width=".25" class="colorStroke000 svgStroke"></line><line x1="148" x2="148" y1="160" y2="-32" fill="none" stroke="#000000" stroke-miterlimit="10" stroke-width=".25" class="colorStroke000 svgStroke"></line><line x1="152" x2="152" y1="160" y2="-32" fill="none" stroke="#000000" stroke-miterlimit="10" stroke-width=".25" class="colorStroke000 svgStroke"></line><line x1="156" x2="156" y1="160" y2="-32" fill="none" stroke="#000000" stroke-miterlimit="10" stroke-width=".25" class="colorStroke000 svgStroke"></line><g fill="#000000" class="color000 svgShape"><line x1="-32" x2="160" y1="-28" y2="-28" fill="none" stroke="#000000" stroke-miterlimit="10" stroke-width=".25" class="colorStroke000 svgStroke"></line><line x1="-32" x2="160" y1="-24" y2="-24" fill="none" stroke="#000000" stroke-miterlimit="10" stroke-width=".25" class="colorStroke000 svgStroke"></line><line x1="-32" x2="160" y1="-20" y2="-20" fill="none" stroke="#000000" stroke-miterlimit="10" stroke-width=".25" class="colorStroke000 svgStroke"></line><line x1="-32" x2="160" y1="-16" y2="-16" fill="none" stroke="#000000" stroke-miterlimit="10" stroke-width=".25" class="colorStroke000 svgStroke"></line><line x1="-32" x2="160" y1="-12" y2="-12" fill="none" stroke="#000000" stroke-miterlimit="10" stroke-width=".25" class="colorStroke000 svgStroke"></line><line x1="-32" x2="160" y1="-8" y2="-8" fill="none" stroke="#000000" stroke-miterlimit="10" stroke-width=".25" class="colorStroke000 svgStroke"></line><line x1="-32" x2="160" y1="-4" y2="-4" fill="none" stroke="#000000" stroke-miterlimit="10" stroke-width=".25" class="colorStroke000 svgStroke"></line><line x1="-32" x2="160" fill="none" stroke="#000000" stroke-miterlimit="10" stroke-width=".25" class="colorStroke000 svgStroke"></line><line x1="-32" x2="160" y1="4" y2="4" fill="none" stroke="#000000" stroke-miterlimit="10" stroke-width=".25" class="colorStroke000 svgStroke"></line><line x1="-32" x2="160" y1="8" y2="8" fill="none" stroke="#000000" stroke-miterlimit="10" stroke-width=".25" class="colorStroke000 svgStroke"></line><line x1="-32" x2="160" y1="12" y2="12" fill="none" stroke="#000000" stroke-miterlimit="10" stroke-width=".25" class="colorStroke000 svgStroke"></line><line x1="-32" x2="160" y1="16" y2="16" fill="none" stroke="#000000" stroke-miterlimit="10" stroke-width=".25" class="colorStroke000 svgStroke"></line><line x1="-32" x2="160" y1="20" y2="20" fill="none" stroke="#000000" stroke-miterlimit="10" stroke-width=".25" class="colorStroke000 svgStroke"></line><line x1="-32" x2="160" y1="24" y2="24" fill="none" stroke="#000000" stroke-miterlimit="10" stroke-width=".25" class="colorStroke000 svgStroke"></line><line x1="-32" x2="160" y1="28" y2="28" fill="none" stroke="#000000" stroke-miterlimit="10" stroke-width=".25" class="colorStroke000 svgStroke"></line><line x1="-32" x2="160" y1="32" y2="32" fill="none" stroke="#000000" stroke-miterlimit="10" stroke-width=".25" class="colorStroke000 svgStroke"></line><line x1="-32" x2="160" y1="36" y2="36" fill="none" stroke="#000000" stroke-miterlimit="10" stroke-width=".25" class="colorStroke000 svgStroke"></line><line x1="-32" x2="160" y1="40" y2="40" fill="none" stroke="#000000" stroke-miterlimit="10" stroke-width=".25" class="colorStroke000 svgStroke"></line><line x1="-32" x2="160" y1="44" y2="44" fill="none" stroke="#000000" stroke-miterlimit="10" stroke-width=".25" class="colorStroke000 svgStroke"></line><line x1="-32" x2="160" y1="48" y2="48" fill="none" stroke="#000000" stroke-miterlimit="10" stroke-width=".25" class="colorStroke000 svgStroke"></line><line x1="-32" x2="160" y1="52" y2="52" fill="none" stroke="#000000" stroke-miterlimit="10" stroke-width=".25" class="colorStroke000 svgStroke"></line><line x1="-32" x2="160" y1="56" y2="56" fill="none" stroke="#000000" stroke-miterlimit="10" stroke-width=".25" class="colorStroke000 svgStroke"></line><line x1="-32" x2="160" y1="60" y2="60" fill="none" stroke="#000000" stroke-miterlimit="10" stroke-width=".25" class="colorStroke000 svgStroke"></line><line x1="-32" x2="160" y1="64" y2="64" fill="none" stroke="#000000" stroke-miterlimit="10" stroke-width=".25" class="colorStroke000 svgStroke"></line><line x1="-32" x2="160" y1="68" y2="68" fill="none" stroke="#000000" stroke-miterlimit="10" stroke-width=".25" class="colorStroke000 svgStroke"></line><line x1="-32" x2="160" y1="72" y2="72" fill="none" stroke="#000000" stroke-miterlimit="10" stroke-width=".25" class="colorStroke000 svgStroke"></line><line x1="-32" x2="160" y1="76" y2="76" fill="none" stroke="#000000" stroke-miterlimit="10" stroke-width=".25" class="colorStroke000 svgStroke"></line><line x1="-32" x2="160" y1="80" y2="80" fill="none" stroke="#000000" stroke-miterlimit="10" stroke-width=".25" class="colorStroke000 svgStroke"></line><line x1="-32" x2="160" y1="84" y2="84" fill="none" stroke="#000000" stroke-miterlimit="10" stroke-width=".25" class="colorStroke000 svgStroke"></line><line x1="-32" x2="160" y1="88" y2="88" fill="none" stroke="#000000" stroke-miterlimit="10" stroke-width=".25" class="colorStroke000 svgStroke"></line><line x1="-32" x2="160" y1="92" y2="92" fill="none" stroke="#000000" stroke-miterlimit="10" stroke-width=".25" class="colorStroke000 svgStroke"></line><line x1="-32" x2="160" y1="96" y2="96" fill="none" stroke="#000000" stroke-miterlimit="10" stroke-width=".25" class="colorStroke000 svgStroke"></line><line x1="-32" x2="160" y1="100" y2="100" fill="none" stroke="#000000" stroke-miterlimit="10" stroke-width=".25" class="colorStroke000 svgStroke"></line><line x1="-32" x2="160" y1="104" y2="104" fill="none" stroke="#000000" stroke-miterlimit="10" stroke-width=".25" class="colorStroke000 svgStroke"></line><line x1="-32" x2="160" y1="108" y2="108" fill="none" stroke="#000000" stroke-miterlimit="10" stroke-width=".25" class="colorStroke000 svgStroke"></line><line x1="-32" x2="160" y1="112" y2="112" fill="none" stroke="#000000" stroke-miterlimit="10" stroke-width=".25" class="colorStroke000 svgStroke"></line><line x1="-32" x2="160" y1="116" y2="116" fill="none" stroke="#000000" stroke-miterlimit="10" stroke-width=".25" class="colorStroke000 svgStroke"></line><line x1="-32" x2="160" y1="120" y2="120" fill="none" stroke="#000000" stroke-miterlimit="10" stroke-width=".25" class="colorStroke000 svgStroke"></line><line x1="-32" x2="160" y1="124" y2="124" fill="none" stroke="#000000" stroke-miterlimit="10" stroke-width=".25" class="colorStroke000 svgStroke"></line><line x1="-32" x2="160" y1="128" y2="128" fill="none" stroke="#000000" stroke-miterlimit="10" stroke-width=".25" class="colorStroke000 svgStroke"></line><line x1="-32" x2="160" y1="132" y2="132" fill="none" stroke="#000000" stroke-miterlimit="10" stroke-width=".25" class="colorStroke000 svgStroke"></line><line x1="-32" x2="160" y1="136" y2="136" fill="none" stroke="#000000" stroke-miterlimit="10" stroke-width=".25" class="colorStroke000 svgStroke"></line><line x1="-32" x2="160" y1="140" y2="140" fill="none" stroke="#000000" stroke-miterlimit="10" stroke-width=".25" class="colorStroke000 svgStroke"></line><line x1="-32" x2="160" y1="144" y2="144" fill="none" stroke="#000000" stroke-miterlimit="10" stroke-width=".25" class="colorStroke000 svgStroke"></line><line x1="-32" x2="160" y1="148" y2="148" fill="none" stroke="#000000" stroke-miterlimit="10" stroke-width=".25" class="colorStroke000 svgStroke"></line><line x1="-32" x2="160" y1="152" y2="152" fill="none" stroke="#000000" stroke-miterlimit="10" stroke-width=".25" class="colorStroke000 svgStroke"></line><line x1="-32" x2="160" y1="156" y2="156" fill="none" stroke="#000000" stroke-miterlimit="10" stroke-width=".25" class="colorStroke000 svgStroke"></line></g><path d="M159.75-31.75v191.5h-191.5v-191.5H159.75 M160-32H-32v192h192V-32L160-32z" fill="#000000" class="color000 svgShape"></path></g></g><rect width="4" height="128" fill="#f44336" opacity=".3" class="colorf44336 svgShape"></rect><rect width="4" height="128" x="124" fill="#f44336" opacity=".3" class="colorf44336 svgShape"></rect><rect width="4" height="120" x="62" y="-58" fill="#f44336" opacity=".3" transform="rotate(90 64 2)" class="colorf44336 svgShape"></rect><rect width="4" height="120" x="62" y="66" fill="#f44336" opacity=".3" transform="rotate(90 64 126)" class="colorf44336 svgShape"></rect></g><g display="none" fill="#000000" class="color000 svgShape"><rect width="128" height="128" fill="none" stroke="#616161" stroke-miterlimit="10" stroke-width=".25" transform="rotate(-90 64 64)" class="colorStroke616161 svgStroke"></rect><rect width="128" height="128" fill="none" stroke="#999999" stroke-miterlimit="10" stroke-width=".25" class="colorStroke999 svgStroke"></rect><line x1="8" x2="8" y2="128" fill="none" stroke="#999999" stroke-miterlimit="10" stroke-width=".25" class="colorStroke999 svgStroke"></line><line x1="16" x2="16" y2="128" fill="none" stroke="#999999" stroke-miterlimit="10" stroke-width=".25" class="colorStroke999 svgStroke"></line><line x1="24" x2="24" y2="128" fill="none" stroke="#999999" stroke-miterlimit="10" stroke-width=".25" class="colorStroke999 svgStroke"></line><line x1="32" x2="32" y2="128" fill="none" stroke="#999999" stroke-miterlimit="10" stroke-width=".25" class="colorStroke999 svgStroke"></line><line x1="40" x2="40" y2="128" fill="none" stroke="#999999" stroke-miterlimit="10" stroke-width=".25" class="colorStroke999 svgStroke"></line><line x1="48" x2="48" y2="128" fill="none" stroke="#999999" stroke-miterlimit="10" stroke-width=".25" class="colorStroke999 svgStroke"></line><line x1="56" x2="56" y2="128" fill="none" stroke="#999999" stroke-miterlimit="10" stroke-width=".25" class="colorStroke999 svgStroke"></line><line x1="63.99" x2="63.99" y2="128" fill="none" stroke="#999999" stroke-miterlimit="10" stroke-width=".25" class="colorStroke999 svgStroke"></line><line x1="71.99" x2="71.99" y2="128" fill="none" stroke="#999999" stroke-miterlimit="10" stroke-width=".25" class="colorStroke999 svgStroke"></line><line x1="79.99" x2="79.99" y2="128" fill="none" stroke="#999999" stroke-miterlimit="10" stroke-width=".25" class="colorStroke999 svgStroke"></line><line x1="87.99" x2="87.99" y2="128" fill="none" stroke="#999999" stroke-miterlimit="10" stroke-width=".25" class="colorStroke999 svgStroke"></line><line x1="95.99" x2="95.99" y2="128" fill="none" stroke="#999999" stroke-miterlimit="10" stroke-width=".25" class="colorStroke999 svgStroke"></line><line x1="103.99" x2="103.99" y2="128" fill="none" stroke="#999999" stroke-miterlimit="10" stroke-width=".25" class="colorStroke999 svgStroke"></line><line x1="111.99" x2="111.99" y2="128" fill="none" stroke="#999999" stroke-miterlimit="10" stroke-width=".25" class="colorStroke999 svgStroke"></line><line x1="119.99" x2="119.99" y2="128" fill="none" stroke="#999999" stroke-miterlimit="10" stroke-width=".25" class="colorStroke999 svgStroke"></line><line x1="128" y1="120" y2="120" fill="none" stroke="#999999" stroke-miterlimit="10" stroke-width=".25" class="colorStroke999 svgStroke"></line><line x1="128" y1="112" y2="112" fill="none" stroke="#999999" stroke-miterlimit="10" stroke-width=".25" class="colorStroke999 svgStroke"></line><line x1="128" y1="104" y2="104" fill="none" stroke="#999999" stroke-miterlimit="10" stroke-width=".25" class="colorStroke999 svgStroke"></line><line x1="128" y1="96" y2="96" fill="none" stroke="#999999" stroke-miterlimit="10" stroke-width=".25" class="colorStroke999 svgStroke"></line><line x1="128" y1="88" y2="88" fill="none" stroke="#999999" stroke-miterlimit="10" stroke-width=".25" class="colorStroke999 svgStroke"></line><line x1="128" y1="80" y2="80" fill="none" stroke="#999999" stroke-miterlimit="10" stroke-width=".25" class="colorStroke999 svgStroke"></line><line x1="128" y1="72" y2="72" fill="none" stroke="#999999" stroke-miterlimit="10" stroke-width=".25" class="colorStroke999 svgStroke"></line><line x1="128" y1="64.01" y2="64.01" fill="none" stroke="#999999" stroke-miterlimit="10" stroke-width=".25" class="colorStroke999 svgStroke"></line><line x1="128" y1="56.01" y2="56.01" fill="none" stroke="#999999" stroke-miterlimit="10" stroke-width=".25" class="colorStroke999 svgStroke"></line><line x1="128" y1="48.01" y2="48.01" fill="none" stroke="#999999" stroke-miterlimit="10" stroke-width=".25" class="colorStroke999 svgStroke"></line><line x1="128" y1="40.01" y2="40.01" fill="none" stroke="#999999" stroke-miterlimit="10" stroke-width=".25" class="colorStroke999 svgStroke"></line><line x1="128" y1="32.01" y2="32.01" fill="none" stroke="#999999" stroke-miterlimit="10" stroke-width=".25" class="colorStroke999 svgStroke"></line><line x1="128" y1="24.01" y2="24.01" fill="none" stroke="#999999" stroke-miterlimit="10" stroke-width=".25" class="colorStroke999 svgStroke"></line><line x1="128" y1="16.01" y2="16.01" fill="none" stroke="#999999" stroke-miterlimit="10" stroke-width=".25" class="colorStroke999 svgStroke"></line><line x1="128" y1="8.01" y2="8.01" fill="none" stroke="#999999" stroke-miterlimit="10" stroke-width=".25" class="colorStroke999 svgStroke"></line><use width="129" height="129" x="-64.5" y="-64.5" overflow="visible" transform="matrix(1 0 0 -1 64 64)" xlink:href="#h"></use></g></svg></g></svg>