<svg width="128" height="128" viewBox="0 0 128 128" fill="none" xmlns="http://www.w3.org/2000/svg">
<path d="M110.24 10.6666H17.7867C14.8412 10.6666 12.4534 13.0544 12.4534 16V72.56C12.4534 75.5055 14.8412 77.8933 17.7867 77.8933H110.24C113.186 77.8933 115.573 75.5055 115.573 72.56V16C115.573 13.0544 113.186 10.6666 110.24 10.6666Z" fill="#FEF8FA" stroke="#FEF8FA" stroke-linecap="round" stroke-linejoin="round"/>
<path d="M42.1067 17.5732H21.4934C20.757 17.5732 20.16 18.1702 20.16 18.9066V23.3599C20.16 24.0963 20.757 24.6932 21.4934 24.6932H42.1067C42.8431 24.6932 43.44 24.0963 43.44 23.3599V18.9066C43.44 18.1702 42.8431 17.5732 42.1067 17.5732Z" fill="#F02E65"/>
<path d="M92.0799 17.5732H48.3199C47.5835 17.5732 46.9866 18.1702 46.9866 18.9066V23.3599C46.9866 24.0963 47.5835 24.6932 48.3199 24.6932H92.0799C92.8163 24.6932 93.4132 24.0963 93.4132 23.3599V18.9066C93.4132 18.1702 92.8163 17.5732 92.0799 17.5732Z" fill="#F02E65"/>
<path d="M106.507 17.5732H97.3867C96.6503 17.5732 96.0533 18.1702 96.0533 18.9066V23.3599C96.0533 24.0963 96.6503 24.6932 97.3867 24.6932H106.507C107.243 24.6932 107.84 24.0963 107.84 23.3599V18.9066C107.84 18.1702 107.243 17.5732 106.507 17.5732Z" fill="#F02E65"/>
<path d="M24.4534 29.1467H21.4934C20.757 29.1467 20.16 29.7437 20.16 30.4801V34.9334C20.16 35.6698 20.757 36.2667 21.4934 36.2667H24.4534C25.1897 36.2667 25.7867 35.6698 25.7867 34.9334V30.4801C25.7867 29.7437 25.1897 29.1467 24.4534 29.1467Z" fill="#F02E65"/>
<path d="M52.2934 29.1467H30.8534C30.117 29.1467 29.52 29.7437 29.52 30.4801V34.9334C29.52 35.6698 30.117 36.2667 30.8534 36.2667H52.2934C53.0297 36.2667 53.6267 35.6698 53.6267 34.9334V30.4801C53.6267 29.7437 53.0297 29.1467 52.2934 29.1467Z" fill="#F02E65"/>
<path d="M67.9468 29.1467H58.5601C57.8238 29.1467 57.2268 29.7437 57.2268 30.4801V34.9334C57.2268 35.6698 57.8238 36.2667 58.5601 36.2667H67.9468C68.6832 36.2667 69.2801 35.6698 69.2801 34.9334V30.4801C69.2801 29.7437 68.6832 29.1467 67.9468 29.1467Z" fill="#F02E65"/>
<path d="M106.48 29.1467H73.7867C73.0503 29.1467 72.4534 29.7437 72.4534 30.4801V34.9334C72.4534 35.6698 73.0503 36.2667 73.7867 36.2667H106.48C107.216 36.2667 107.813 35.6698 107.813 34.9334V30.4801C107.813 29.7437 107.216 29.1467 106.48 29.1467Z" fill="#F02E65"/>
<path d="M45.2801 40.72H21.1201C20.3837 40.72 19.7867 41.3169 19.7867 42.0533V46.5066C19.7867 47.243 20.3837 47.84 21.1201 47.84H45.2801C46.0165 47.84 46.6134 47.243 46.6134 46.5066V42.0533C46.6134 41.3169 46.0165 40.72 45.2801 40.72Z" fill="#F02E65"/>
<path d="M106.507 40.72H50.8534C50.117 40.72 49.52 41.3169 49.52 42.0533V46.5066C49.52 47.243 50.117 47.84 50.8534 47.84H106.507C107.243 47.84 107.84 47.243 107.84 46.5066V42.0533C107.84 41.3169 107.243 40.72 106.507 40.72Z" fill="#F02E65"/>
<path d="M36.4801 52.2932H21.1201C20.3837 52.2932 19.7867 52.8902 19.7867 53.6265V58.0799C19.7867 58.8163 20.3837 59.4132 21.1201 59.4132H36.4801C37.2165 59.4132 37.8134 58.8163 37.8134 58.0799V53.6265C37.8134 52.8902 37.2165 52.2932 36.4801 52.2932Z" fill="#F02E65"/>
<path d="M81.1734 52.2932H43.1467C42.4103 52.2932 41.8134 52.8902 41.8134 53.6265V58.0799C41.8134 58.8163 42.4103 59.4132 43.1467 59.4132H81.1734C81.9097 59.4132 82.5067 58.8163 82.5067 58.0799V53.6265C82.5067 52.8902 81.9097 52.2932 81.1734 52.2932Z" fill="#F02E65"/>
<path d="M91.5467 52.2932H87.1467C86.4103 52.2932 85.8134 52.8902 85.8134 53.6265V58.0799C85.8134 58.8163 86.4103 59.4132 87.1467 59.4132H91.5467C92.2831 59.4132 92.88 58.8163 92.88 58.0799V53.6265C92.88 52.8902 92.2831 52.2932 91.5467 52.2932Z" fill="#F02E65"/>
<path d="M106.507 52.2932H97.3867C96.6503 52.2932 96.0533 52.8902 96.0533 53.6265V58.0799C96.0533 58.8163 96.6503 59.4132 97.3867 59.4132H106.507C107.243 59.4132 107.84 58.8163 107.84 58.0799V53.6265C107.84 52.8902 107.243 52.2932 106.507 52.2932Z" fill="#F02E65"/>
<path d="M84.4801 63.8666H21.1201C20.3837 63.8666 19.7867 64.4635 19.7867 65.1999V69.6532C19.7867 70.3896 20.3837 70.9866 21.1201 70.9866H84.4801C85.2165 70.9866 85.8134 70.3896 85.8134 69.6532V65.1999C85.8134 64.4635 85.2165 63.8666 84.4801 63.8666Z" fill="#F02E65"/>
<path d="M106.507 63.8666H90.6666C89.9302 63.8666 89.3333 64.4635 89.3333 65.1999V69.6532C89.3333 70.3896 89.9302 70.9866 90.6666 70.9866H106.507C107.243 70.9866 107.84 70.3896 107.84 69.6532V65.1999C107.84 64.4635 107.243 63.8666 106.507 63.8666Z" fill="#F02E65"/>
<path d="M63.9999 83.2533C72.402 83.2533 80.4599 86.591 86.4011 92.5321C92.3422 98.4733 95.68 106.531 95.68 114.933V120H32.3199V114.933C32.3199 106.531 35.6577 98.4733 41.5988 92.5321C47.54 86.591 55.5979 83.2533 63.9999 83.2533Z" fill="#EB7B9B"/>
<path d="M63.9999 83.2533C55.5979 83.2533 47.54 86.591 41.5988 92.5321C35.6577 98.4733 32.3199 106.531 32.3199 114.933V120H32.6666C33.7443 112.456 37.5056 105.552 43.2607 100.557C49.0158 95.5606 56.3789 92.8068 63.9999 92.8C71.621 92.8068 78.9841 95.5606 84.7392 100.557C90.4943 105.552 94.2556 112.456 95.3333 120H95.68V114.933C95.68 106.531 92.3422 98.4733 86.4011 92.5321C80.4599 86.591 72.402 83.2533 63.9999 83.2533Z" fill="#F02E65"/>
<path d="M63.9999 83.2533C72.402 83.2533 80.4599 86.591 86.4011 92.5321C92.3422 98.4733 95.68 106.531 95.68 114.933V120H32.3199V114.933C32.3199 106.531 35.6577 98.4733 41.5988 92.5321C47.54 86.591 55.5979 83.2533 63.9999 83.2533V83.2533Z" stroke="#45413C" stroke-linecap="round" stroke-linejoin="round"/>
<path d="M64.0266 72.4534H63.9999C60.2591 72.4534 57.2266 75.4859 57.2266 79.2267V86.8534C57.2266 90.5942 60.2591 93.6267 63.9999 93.6267H64.0266C67.7674 93.6267 70.7999 90.5942 70.7999 86.8534V79.2267C70.7999 75.4859 67.7674 72.4534 64.0266 72.4534Z" fill="#FCDDBD"/>
<path d="M63.9999 72.4534C62.2035 72.4534 60.4807 73.167 59.2104 74.4372C57.9402 75.7075 57.2266 77.4303 57.2266 79.2267V80.8267C57.2266 82.6231 57.9402 84.3459 59.2104 85.6162C60.4807 86.8864 62.2035 87.6 63.9999 87.6C65.7963 87.6 67.5191 86.8864 68.7894 85.6162C70.0596 84.3459 70.7732 82.6231 70.7732 80.8267V79.2534C70.7767 78.3616 70.6041 77.478 70.2653 76.6531C69.9265 75.8283 69.4281 75.0784 68.7988 74.4466C68.1695 73.8149 67.4216 73.3136 66.5981 72.9715C65.7746 72.6294 64.8916 72.4534 63.9999 72.4534V72.4534Z" fill="#EBCB00"/>
<path d="M64.0266 72.4534H63.9999C60.2591 72.4534 57.2266 75.4859 57.2266 79.2267V86.8534C57.2266 90.5942 60.2591 93.6267 63.9999 93.6267H64.0266C67.7674 93.6267 70.7999 90.5942 70.7999 86.8534V79.2267C70.7999 75.4859 67.7674 72.4534 64.0266 72.4534Z" stroke="#45413C" stroke-linecap="round" stroke-linejoin="round"/>
<path d="M45.4934 120V113.573" stroke="#45413C" stroke-linecap="round" stroke-linejoin="round"/>
<path d="M82.5066 120V113.573" stroke="#45413C" stroke-linecap="round" stroke-linejoin="round"/>
<path d="M64.0002 18.4268C61.8052 18.4288 59.6192 18.7065 57.4935 19.2534C52.5335 20.3734 46.0802 22.2401 40.2402 21.1201C40.0126 22.6242 40.0939 24.159 40.479 25.6307C40.8641 27.1024 41.545 28.4802 42.4802 29.6801C39.4376 34.0653 37.8092 39.2761 37.8135 44.6134V58.3201H90.1868V44.6134C90.1868 37.6683 87.4279 31.0076 82.5169 26.0967C77.606 21.1857 70.9453 18.4268 64.0002 18.4268V18.4268Z" fill="#724F3D"/>
<path d="M64.0001 18.4268C61.8051 18.4288 59.6191 18.7065 57.4934 19.2534C52.5334 20.3734 46.0801 22.2401 40.2401 21.1201C39.879 23.9173 40.5215 26.7519 42.0534 29.1201C47.2769 29.2015 52.4826 28.4912 57.4934 27.0134C61.3612 26.0159 65.406 25.9172 69.3178 26.7251C73.2296 27.533 76.9044 29.2259 80.0606 31.6741C83.2167 34.1223 85.7703 37.2607 87.5256 40.8488C89.2808 44.4368 90.1911 48.3791 90.1867 52.3734V44.6134C90.1867 37.6683 87.4278 31.0076 82.5168 26.0967C77.6059 21.1857 70.9452 18.4268 64.0001 18.4268V18.4268Z" fill="#A86C4D"/>
<path d="M64.0002 18.4268C61.8052 18.4288 59.6192 18.7065 57.4935 19.2534C52.5335 20.3734 46.0802 22.2401 40.2402 21.1201C40.0126 22.6242 40.0939 24.159 40.479 25.6307C40.8641 27.1024 41.545 28.4802 42.4802 29.6801C39.4376 34.0653 37.8092 39.2761 37.8135 44.6134V58.3201H90.1868V44.6134C90.1868 37.6683 87.4279 31.0076 82.5169 26.0967C77.606 21.1857 70.9453 18.4268 64.0002 18.4268V18.4268Z" stroke="#45413C" stroke-linecap="round" stroke-linejoin="round"/>
<path d="M92.9866 56.3199C92.857 55.3406 92.4333 54.4238 91.7714 53.6905C91.1096 52.9573 90.2408 52.4421 89.28 52.2132L87.7066 51.7865C86.5474 51.4591 85.5279 50.7597 84.8051 49.796C84.0823 48.8323 83.6964 47.6578 83.7066 46.4532V41.0132C83.7037 39.9135 83.3393 38.8453 82.6695 37.9731C81.9997 37.1009 81.0617 36.4731 80 36.1865C74.9149 38.2164 69.4741 39.2048 64 39.0932C58.5259 39.2048 53.085 38.2164 48 36.1865C46.9333 36.4682 45.9894 37.0938 45.3144 37.9665C44.6394 38.8391 44.2712 39.91 44.2666 41.0132V46.5065C44.2769 47.7111 43.8909 48.8856 43.1682 49.8493C42.4454 50.813 41.4259 51.5124 40.2666 51.8399L38.6933 52.2665C37.7324 52.4955 36.8637 53.0106 36.2018 53.7439C35.54 54.4771 35.1163 55.394 34.9866 56.3732C34.9154 57.0483 34.9873 57.7308 35.1977 58.3762C35.4082 59.0216 35.7524 59.6153 36.2079 60.1187C36.6634 60.622 37.22 61.0236 37.8412 61.2972C38.4625 61.5708 39.1345 61.7103 39.8133 61.7065H40.1066C40.7306 67.6014 43.5141 73.0568 47.9208 77.0216C52.3274 80.9865 58.0455 83.1802 63.9733 83.1802C69.9011 83.1802 75.6192 80.9865 80.0259 77.0216C84.4325 73.0568 87.216 67.6014 87.84 61.7065H88.1333C88.8194 61.715 89.4994 61.577 90.128 61.3019C90.7565 61.0268 91.3192 60.6208 91.7785 60.1111C92.2378 59.6013 92.5831 58.9995 92.7914 58.3457C92.9997 57.692 93.0663 57.0014 92.9866 56.3199V56.3199Z" fill="#FCDDBD" stroke="#45413C" stroke-linecap="round" stroke-linejoin="round"/>
<path d="M49.5201 55.7599C49.5201 56.166 49.6405 56.563 49.8661 56.9007C50.0917 57.2384 50.4124 57.5016 50.7876 57.657C51.1628 57.8124 51.5757 57.853 51.974 57.7738C52.3723 57.6946 52.7382 57.499 53.0253 57.2119C53.3125 56.9247 53.5081 56.5588 53.5873 56.1605C53.6665 55.7622 53.6259 55.3494 53.4704 54.9742C53.315 54.599 53.0519 54.2783 52.7142 54.0526C52.3765 53.827 51.9795 53.7066 51.5734 53.7066C51.3028 53.703 51.0342 53.7537 50.7834 53.8556C50.5327 53.9575 50.3049 54.1086 50.1135 54.3C49.9221 54.4914 49.771 54.7192 49.6691 54.9699C49.5672 55.2207 49.5165 55.4893 49.5201 55.7599V55.7599Z" fill="#45413C" stroke="#45413C" stroke-linecap="round" stroke-linejoin="round"/>
<path d="M78.4801 55.7599C78.4801 56.166 78.3597 56.563 78.134 56.9007C77.9084 57.2384 77.5877 57.5016 77.2125 57.657C76.8373 57.8124 76.4245 57.853 76.0262 57.7738C75.6279 57.6946 75.262 57.499 74.9748 57.2119C74.6877 56.9247 74.4921 56.5588 74.4129 56.1605C74.3336 55.7622 74.3743 55.3494 74.5297 54.9742C74.6851 54.599 74.9483 54.2783 75.286 54.0526C75.6236 53.827 76.0206 53.7066 76.4267 53.7066C76.6974 53.703 76.966 53.7537 77.2167 53.8556C77.4675 53.9575 77.6953 54.1086 77.8867 54.3C78.078 54.4914 78.2292 54.7192 78.3311 54.9699C78.433 55.2207 78.4837 55.4893 78.4801 55.7599V55.7599Z" fill="#45413C" stroke="#45413C" stroke-linecap="round" stroke-linejoin="round"/>
<path d="M56.4267 68.2666C56.258 68.2702 56.092 68.3102 55.9401 68.3839C55.7883 68.4575 55.6541 68.563 55.5467 68.6933C55.4351 68.8189 55.3532 68.968 55.307 69.1295C55.2608 69.2911 55.2516 69.461 55.28 69.6266C55.6401 71.6778 56.7118 73.5365 58.3066 74.8758C59.9015 76.215 61.9174 76.9492 64 76.9492C66.0826 76.9492 68.0986 76.215 69.6934 74.8758C71.2883 73.5365 72.36 71.6778 72.72 69.6266C72.7485 69.461 72.7392 69.2911 72.6931 69.1295C72.6469 68.968 72.565 68.8189 72.4534 68.6933C72.3485 68.5602 72.2148 68.4527 72.0624 68.3788C71.91 68.3049 71.7428 68.2665 71.5734 68.2666H56.4267Z" fill="#F02E65"/>
<path d="M64.0002 72C61.5925 71.9058 59.224 72.6295 57.2802 74.0533C58.1204 74.9891 59.1483 75.7375 60.2969 76.2498C61.4455 76.7621 62.6891 77.0269 63.9468 77.0269C65.2045 77.0269 66.4481 76.7621 67.5967 76.2498C68.7453 75.7375 69.7732 74.9891 70.6135 74.0533C68.6987 72.6524 66.3716 71.9299 64.0002 72Z" fill="#EB7B9B"/>
<path d="M56.4267 68.2666C56.258 68.2702 56.092 68.3102 55.9401 68.3839C55.7883 68.4575 55.6541 68.563 55.5467 68.6933C55.4351 68.8189 55.3532 68.968 55.307 69.1295C55.2608 69.2911 55.2516 69.461 55.28 69.6266C55.6401 71.6778 56.7118 73.5365 58.3066 74.8758C59.9015 76.215 61.9174 76.9492 64 76.9492C66.0826 76.9492 68.0986 76.215 69.6934 74.8758C71.2883 73.5365 72.36 71.6778 72.72 69.6266C72.7485 69.461 72.7392 69.2911 72.6931 69.1295C72.6469 68.968 72.565 68.8189 72.4534 68.6933C72.3485 68.5602 72.2148 68.4527 72.0624 68.3788C71.91 68.3049 71.7428 68.2665 71.5734 68.2666H56.4267Z" stroke="#45413C" stroke-linecap="round" stroke-linejoin="round"/>
<path d="M48.1601 66.1066C49.6328 66.1066 50.8267 65.3903 50.8267 64.5066C50.8267 63.623 49.6328 62.9066 48.1601 62.9066C46.6873 62.9066 45.4934 63.623 45.4934 64.5066C45.4934 65.3903 46.6873 66.1066 48.1601 66.1066Z" fill="#EB7B9B"/>
<path d="M79.8399 66.1066C81.3126 66.1066 82.5065 65.3903 82.5065 64.5066C82.5065 63.623 81.3126 62.9066 79.8399 62.9066C78.3671 62.9066 77.1732 63.623 77.1732 64.5066C77.1732 65.3903 78.3671 66.1066 79.8399 66.1066Z" fill="#EB7B9B"/>
<path d="M86.72 120H41.3867C40.9035 120.015 40.431 119.856 40.0545 119.553C39.678 119.25 39.4222 118.822 39.3334 118.347L36.1067 91.9468C36.0909 91.6707 36.134 91.3944 36.2333 91.1363C36.3326 90.8782 36.4858 90.6443 36.6826 90.45C36.8794 90.2557 37.1153 90.1056 37.3747 90.0096C37.634 89.9137 37.9109 89.8741 38.1867 89.8935H89.92C90.1959 89.8741 90.4727 89.9137 90.7321 90.0096C90.9914 90.1056 91.2274 90.2557 91.4242 90.45C91.621 90.6443 91.7741 90.8782 91.8734 91.1363C91.9727 91.3944 92.0159 91.6707 92 91.9468L88.7734 118.347C88.6845 118.822 88.4288 119.25 88.0523 119.553C87.6757 119.856 87.2032 120.015 86.72 120Z" fill="#EB7B9B"/>
<path d="M38.08 98.5068H89.92C90.3607 98.5086 90.7897 98.6485 91.1467 98.9068L92 91.9468C92.0159 91.6707 91.9727 91.3944 91.8734 91.1363C91.7741 90.8782 91.6209 90.6443 91.4241 90.45C91.2273 90.2557 90.9914 90.1056 90.7321 90.0096C90.4727 89.9137 90.1959 89.8741 89.92 89.8935H38.08C37.8042 89.8741 37.5273 89.9137 37.268 90.0096C37.0086 90.1056 36.7727 90.2557 36.5759 90.45C36.3791 90.6443 36.226 90.8782 36.1267 91.1363C36.0274 91.3944 35.9842 91.6707 36 91.9468L36.8534 98.9068C37.2103 98.6485 37.6394 98.5086 38.08 98.5068V98.5068Z" fill="#F02E65"/>
<path d="M86.72 120H41.3867C40.9035 120.015 40.431 119.856 40.0545 119.553C39.678 119.25 39.4222 118.822 39.3334 118.347L36.1067 91.9468C36.0909 91.6707 36.134 91.3944 36.2333 91.1363C36.3326 90.8782 36.4858 90.6443 36.6826 90.45C36.8794 90.2557 37.1153 90.1056 37.3747 90.0096C37.634 89.9137 37.9109 89.8741 38.1867 89.8935H89.92C90.1959 89.8741 90.4727 89.9137 90.7321 90.0096C90.9914 90.1056 91.2274 90.2557 91.4242 90.45C91.621 90.6443 91.7741 90.8782 91.8734 91.1363C91.9727 91.3944 92.0159 91.6707 92 91.9468L88.7734 118.347C88.6845 118.822 88.4288 119.25 88.0523 119.553C87.6757 119.856 87.2032 120.015 86.72 120Z" stroke="#45413C" stroke-linecap="round" stroke-linejoin="round"/>
<path d="M67.1733 104.96C67.1421 104.156 67.3661 103.363 67.8133 102.693C67.569 102.372 67.22 102.145 66.8266 102.053C66.3669 101.893 65.8666 101.893 65.4068 102.053C64.947 102.212 64.5546 102.523 64.2933 102.933C64.0192 102.501 63.6036 102.177 63.1173 102.016C62.6311 101.856 62.1043 101.869 61.6266 102.053C60.2933 102.32 59.6266 104.24 60.1066 106.293C60.5866 108.347 62.0799 109.813 63.4399 109.547C63.7162 109.472 63.9716 109.336 64.1866 109.147C64.3883 109.34 64.6362 109.477 64.9066 109.547C65.9999 109.76 67.1733 108.853 67.8399 107.413C67.3222 106.706 67.0847 105.832 67.1733 104.96Z" fill="white"/>
<path d="M66.0864 100.821C66.6896 100.135 66.9636 99.3905 66.6982 99.157C66.4329 98.9235 65.7287 99.2898 65.1255 99.9753C64.5222 100.661 64.2483 101.406 64.5136 101.639C64.779 101.873 65.4831 101.506 66.0864 100.821Z" fill="white"/>
</svg>
