<?xml version="1.0" encoding="UTF-8" standalone="no"?>
<!-- Created with Inkscape (http://www.inkscape.org/) -->

<svg
   width="30.080433mm"
   height="29.987867mm"
   viewBox="0 0 30.080433 29.987867"
   version="1.1"
   id="svg4834"
   inkscape:version="1.1.1 (3bf5ae0d25, 2021-09-20)"
   sodipodi:docname="atom2.svg"
   xmlns:inkscape="http://www.inkscape.org/namespaces/inkscape"
   xmlns:sodipodi="http://sodipodi.sourceforge.net/DTD/sodipodi-0.dtd"
   xmlns="http://www.w3.org/2000/svg"
   xmlns:svg="http://www.w3.org/2000/svg">
  <sodipodi:namedview
     id="namedview4836"
     pagecolor="#ffffff"
     bordercolor="#666666"
     borderopacity="1.0"
     inkscape:pageshadow="2"
     inkscape:pageopacity="0.0"
     inkscape:pagecheckerboard="0"
     inkscape:document-units="mm"
     showgrid="false"
     inkscape:snap-global="false"
     fit-margin-top="0"
     fit-margin-left="0"
     fit-margin-right="0"
     fit-margin-bottom="0"
     inkscape:zoom="4.974523"
     inkscape:cx="117.69973"
     inkscape:cy="60.608826"
     inkscape:window-width="1920"
     inkscape:window-height="986"
     inkscape:window-x="-11"
     inkscape:window-y="-11"
     inkscape:window-maximized="1"
     inkscape:current-layer="layer1" />
  <defs
     id="defs4831" />
  <g
     inkscape:label="Layer 1"
     inkscape:groupmode="layer"
     id="layer1"
     transform="translate(-106.43501,-155.84814)">
    <g
       id="g4994"
       transform="translate(1.0637531,-2.1275072)">
      <path
         style="fill:#f3b7c8;stroke-width:0.264583"
         d="m 35.307726,188.1726 c 0.472942,-0.0587 1.246849,-0.0587 1.719791,0 0.472943,0.0587 0.08599,0.10671 -0.859896,0.10671 -0.945885,0 -1.332838,-0.048 -0.859895,-0.10671 z m 3.191536,-0.25392 c 0.190996,-0.0764 0.419199,-0.067 0.507118,0.0209 0.08792,0.0879 -0.06835,0.15045 -0.347265,0.13897 -0.308225,-0.0127 -0.37092,-0.0754 -0.159853,-0.15986 z m 9.310026,-5.21083 c 0,-0.0549 0.208359,-0.2633 0.46302,-0.46302 0.419645,-0.3291 0.429004,-0.31975 0.0999,0.0999 -0.345643,0.44073 -0.562916,0.58089 -0.562916,0.36312 z m 3.460472,-7.46277 c 0.0127,-0.30823 0.07539,-0.37092 0.15985,-0.15986 0.07643,0.191 0.06703,0.4192 -0.02087,0.50712 -0.08792,0.0879 -0.150453,-0.0684 -0.138965,-0.34726 z m -5.312556,-0.21014 c 0,-0.0549 0.20836,-0.2633 0.463021,-0.46302 0.419645,-0.32911 0.429003,-0.31975 0.0999,0.0999 -0.345643,0.44073 -0.562917,0.58089 -0.562917,0.36313 z m -25.313178,-2.14907 c 0.0012,-1.01864 0.049,-1.40294 0.106272,-0.85399 0.05728,0.54895 0.05631,1.38239 -0.0021,1.85208 -0.05845,0.4697 -0.105311,0.0206 -0.104137,-0.99809 z m 30.951415,0 c 0.0016,-0.87312 0.05088,-1.19841 0.109765,-0.72286 0.05889,0.47555 0.05767,1.18992 -0.0027,1.5875 -0.06037,0.39757 -0.108551,0.008 -0.107065,-0.86464 z m -0.325681,-2.40329 c 0.0127,-0.30823 0.07539,-0.37092 0.15985,-0.15986 0.07643,0.191 0.06703,0.4192 -0.02087,0.50712 -0.08792,0.0879 -0.150453,-0.0683 -0.138965,-0.34726 z m -30.427083,-0.26459 c 0.0127,-0.30822 0.07539,-0.37092 0.159852,-0.15985 0.07643,0.191 0.06703,0.4192 -0.02089,0.50712 -0.08792,0.0879 -0.150452,-0.0683 -0.138964,-0.34727 z m 15.324944,-2.85597 c 0,-0.0549 0.20836,-0.2633 0.463021,-0.46302 0.419644,-0.32911 0.429003,-0.31975 0.09989,0.0999 -0.345643,0.44072 -0.562916,0.58088 -0.562916,0.36312 z m -6.949721,-8.3996 c 0.179475,-0.18082 0.39297,-0.26212 0.474431,-0.18066 0.08146,0.0815 -0.06538,0.22941 -0.326319,0.32877 -0.377084,0.14359 -0.407475,0.11319 -0.148112,-0.14811 z m 13.564305,0.0328 c -0.238467,-0.15411 -0.271101,-0.2581 -0.08176,-0.26053 0.173313,-0.002 0.388699,0.11501 0.478635,0.26053 0.203017,0.32849 0.111423,0.32849 -0.396875,0 z m -9.326563,-1.49815 c 0.181901,-0.0734 0.479558,-0.0734 0.661459,0 0.181901,0.0734 0.03307,0.13346 -0.330729,0.13346 -0.363802,0 -0.512631,-0.0601 -0.33073,-0.13346 z m 4.7625,0 c 0.181901,-0.0734 0.479558,-0.0734 0.661459,0 0.181901,0.0734 0.03307,0.13346 -0.33073,0.13346 -0.363802,0 -0.51263,-0.0601 -0.330729,-0.13346 z m -2.778125,-0.27886 c 0.400183,-0.0606 1.055026,-0.0606 1.455209,0 0.400182,0.0606 0.07276,0.11022 -0.727605,0.11022 -0.800364,0 -1.127786,-0.0496 -0.727604,-0.11022 z"
         id="path5006" />
      <path
         style="fill:#e699ad;stroke-width:0.264583"
         d="m 26.749775,184.85827 -0.504028,-0.59531 0.595312,0.50403 c 0.559447,0.47366 0.715762,0.68659 0.504029,0.68659 -0.05021,0 -0.318098,-0.26789 -0.595313,-0.59531 z m 18.413679,0.23083 c 0,-0.0549 0.20836,-0.2633 0.463021,-0.46302 0.419645,-0.32911 0.429004,-0.31975 0.0999,0.0999 -0.345644,0.44073 -0.562917,0.58089 -0.562917,0.36312 z m -20.001179,-1.55375 -0.504028,-0.59531 0.595313,0.50403 c 0.559446,0.47366 0.715761,0.6866 0.504028,0.6866 -0.05021,0 -0.318098,-0.2679 -0.595313,-0.59532 z m 21.853263,-0.0661 c 0.341775,-0.36381 0.680939,-0.66146 0.7537,-0.66146 0.07276,0 -0.147342,0.29765 -0.489117,0.66146 -0.341776,0.3638 -0.68094,0.66146 -0.7537,0.66146 -0.07276,0 0.147341,-0.29766 0.489117,-0.66146 z M 23.96304,182.08014 c -0.329108,-0.41964 -0.319749,-0.429 0.0999,-0.0999 0.254661,0.19972 0.46302,0.40808 0.46302,0.46302 0,0.21776 -0.217272,0.0776 -0.562915,-0.36313 z m 12.184556,-1.5875 -0.641433,-0.7276 0.727604,0.64143 c 0.680056,0.59952 0.848939,0.81378 0.641433,0.81378 -0.04739,0 -0.374815,-0.32742 -0.727604,-0.72761 z m -7.102836,-0.48506 c 0.0127,-0.30823 0.07539,-0.37092 0.159852,-0.15986 0.07643,0.191 0.06703,0.4192 -0.02089,0.50712 -0.08792,0.0879 -0.150453,-0.0684 -0.138965,-0.34726 z m 0.03069,-1.56546 c 0.0054,-0.43656 0.06469,-0.58312 0.131774,-0.32569 0.06708,0.25743 0.06267,0.61462 -0.0098,0.79375 -0.07248,0.17913 -0.127363,-0.0315 -0.121971,-0.46806 z m 12.140141,-0.28663 c 0.01269,-0.30822 0.07539,-0.37092 0.159852,-0.15985 0.07643,0.191 0.06703,0.4192 -0.02089,0.50712 -0.08792,0.0879 -0.150453,-0.0683 -0.138964,-0.34727 z m 9.525,-1.32291 c 0.0127,-0.30823 0.07539,-0.37092 0.159851,-0.15986 0.07643,0.191 0.06703,0.4192 -0.02088,0.50712 -0.08792,0.0879 -0.150453,-0.0684 -0.138964,-0.34726 z m -24.660887,-2.68994 c -0.329107,-0.41964 -0.319749,-0.429 0.0999,-0.0999 0.440729,0.34564 0.580887,0.56292 0.363126,0.56292 -0.05494,0 -0.263301,-0.20836 -0.463021,-0.46303 z m 19.984652,-2.77812 -0.504029,-0.59531 0.595313,0.50403 c 0.559445,0.47366 0.715761,0.68659 0.504028,0.68659 -0.05021,0 -0.318098,-0.26789 -0.595312,-0.59531 z m -7.300513,-2.76043 c 0.190996,-0.0764 0.4192,-0.067 0.507118,0.0209 0.08792,0.0879 -0.06835,0.15045 -0.347265,0.13897 -0.308225,-0.0127 -0.37092,-0.0754 -0.159853,-0.15986 z m -5.556249,-0.26458 c 0.190996,-0.0764 0.419199,-0.067 0.507118,0.0209 0.08792,0.0879 -0.06835,0.15045 -0.347266,0.13896 -0.308224,-0.0127 -0.370919,-0.0754 -0.159852,-0.15985 z m 2.761588,-0.002 c 0.254661,-0.0666 0.67138,-0.0666 0.926042,0 0.254661,0.0665 0.0463,0.121 -0.463021,0.121 -0.509323,0 -0.717682,-0.0545 -0.463021,-0.121 z m 7.098492,-1.29487 c 0.0127,-0.30823 0.07539,-0.37092 0.159852,-0.15986 0.07643,0.191 0.06703,0.4192 -0.02089,0.50712 -0.08792,0.0879 -0.150453,-0.0684 -0.138965,-0.34726 z m -7.429221,-0.77171 c 0.341774,-0.3638 0.680939,-0.66146 0.753699,-0.66146 0.07276,0 -0.147342,0.29766 -0.489116,0.66146 -0.341774,0.3638 -0.680939,0.66146 -0.753699,0.66146 -0.07276,0 0.147342,-0.29766 0.489116,-0.66146 z m 7.450109,-0.66146 c 0,-0.3638 0.06005,-0.51263 0.133452,-0.33073 0.0734,0.1819 0.0734,0.47956 0,0.66146 -0.0734,0.1819 -0.133452,0.0331 -0.133452,-0.33073 z m -19.356359,-1.95198 c 0,-0.0549 0.20836,-0.2633 0.463021,-0.46302 0.419644,-0.3291 0.429003,-0.31975 0.0999,0.0999 -0.345643,0.44073 -0.562916,0.58089 -0.562916,0.36312 z m 6.614583,0 c 0,-0.0549 0.20836,-0.2633 0.463021,-0.46302 0.419644,-0.3291 0.429003,-0.31975 0.0999,0.0999 -0.345643,0.44073 -0.562916,0.58089 -0.562916,0.36312 z m 17.693333,-0.36312 c -0.329108,-0.41965 -0.319749,-0.429 0.0999,-0.0999 0.440729,0.34565 0.580887,0.56292 0.363124,0.56292 -0.05494,0 -0.2633,-0.20836 -0.46302,-0.46302 z m -23.249582,-0.95979 c 0,-0.0549 0.208359,-0.2633 0.463021,-0.46302 0.419643,-0.32911 0.429002,-0.31975 0.09989,0.0999 -0.345643,0.44073 -0.562915,0.58089 -0.562915,0.36313 z m 22.191248,-0.36313 c -0.329107,-0.41964 -0.319749,-0.429 0.0999,-0.0999 0.44073,0.34564 0.580888,0.56291 0.363125,0.56291 -0.05494,0 -0.2633,-0.20836 -0.463021,-0.46302 z M 26.51033,160.84733 c 0.263389,-0.29104 0.538421,-0.52916 0.611181,-0.52916 0.07276,0 -0.08321,0.23812 -0.346597,0.52916 -0.263389,0.29104 -0.538421,0.52917 -0.611181,0.52917 -0.07276,0 0.08321,-0.23813 0.346597,-0.52917 z m 19.024861,-0.0661 -0.504028,-0.59532 0.595312,0.50403 c 0.559446,0.47366 0.715762,0.6866 0.504029,0.6866 -0.05021,0 -0.318098,-0.26789 -0.595313,-0.59531 z"
         id="path5004" />
      <path
         style="fill:#ef6e93;stroke-width:0.264583"
         d="m 35.175434,187.90667 c 0.545703,-0.0571 1.438672,-0.0571 1.984375,0 0.545703,0.0571 0.09922,0.10379 -0.992188,0.10379 -1.091406,0 -1.53789,-0.0467 -0.992187,-0.10379 z m -1.703255,-0.25258 c 0.190996,-0.0764 0.419199,-0.067 0.507118,0.0209 0.08792,0.0879 -0.06835,0.15045 -0.347266,0.13896 -0.308224,-0.0127 -0.370919,-0.0754 -0.159852,-0.15985 z m 5.010547,0.006 c 0.181901,-0.0734 0.479557,-0.0734 0.661458,0 0.181901,0.0734 0.03307,0.13345 -0.330729,0.13345 -0.363802,0 -0.51263,-0.0601 -0.330729,-0.13345 z m -6.06888,-0.2701 c 0.190996,-0.0764 0.419199,-0.067 0.507118,0.0209 0.08792,0.0879 -0.06835,0.15045 -0.347266,0.13896 -0.308224,-0.0127 -0.370919,-0.0754 -0.159852,-0.15985 z m 7.408333,0 c 0.190996,-0.0764 0.419199,-0.067 0.507118,0.0209 0.08792,0.0879 -0.06835,0.15045 -0.347266,0.13896 -0.308224,-0.0127 -0.370919,-0.0754 -0.159852,-0.15985 z m -8.466667,-0.26458 c 0.190996,-0.0764 0.4192,-0.067 0.507118,0.0209 0.08792,0.0879 -0.06835,0.15046 -0.347265,0.13897 -0.308225,-0.0127 -0.370919,-0.0754 -0.159853,-0.15985 z m 9.890773,-7.88905 c 0.0054,-0.43656 0.06469,-0.58312 0.131773,-0.32569 0.06708,0.25743 0.06267,0.61462 -0.0098,0.79375 -0.07248,0.17913 -0.127363,-0.0315 -0.121971,-0.46806 z m -19.874441,-2.66788 c 0.0127,-0.30822 0.07539,-0.37092 0.159852,-0.15985 0.07643,0.191 0.06703,0.4192 -0.02089,0.50712 -0.08792,0.0879 -0.150453,-0.0683 -0.138964,-0.34727 z m -0.264584,-1.05833 c 0.0127,-0.30823 0.07539,-0.37092 0.159853,-0.15985 0.07643,0.19099 0.06703,0.4192 -0.02089,0.50711 -0.08792,0.0879 -0.150453,-0.0684 -0.138965,-0.34726 z m 29.918802,-0.11024 c 0,-0.36381 0.06006,-0.51263 0.133454,-0.33073 0.0734,0.1819 0.0734,0.47955 0,0.66145 -0.0734,0.18191 -0.133454,0.0331 -0.133454,-0.33072 z m -30.113571,-2.51355 c 9.6e-4,-1.16416 0.04748,-1.6075 0.103369,-0.98519 0.05589,0.62231 0.05511,1.57481 -0.0017,2.11667 -0.05685,0.54185 -0.102584,0.0327 -0.101623,-1.13148 z m 30.4232,0 c 0.0011,-1.01864 0.049,-1.40294 0.106273,-0.85399 0.05727,0.54895 0.05631,1.38239 -0.0021,1.85208 -0.05847,0.4697 -0.105331,0.0206 -0.104156,-0.99809 z m -4.299265,0.24254 c 0.0127,-0.30823 0.07539,-0.37092 0.159851,-0.15985 0.07643,0.19099 0.06703,0.4192 -0.02088,0.50711 -0.08792,0.0879 -0.150453,-0.0684 -0.138965,-0.34726 z M 25.07601,172.33466 c 0.0127,-0.30823 0.07539,-0.37092 0.159853,-0.15985 0.07643,0.19099 0.06703,0.4192 -0.02089,0.50711 -0.08792,0.0879 -0.150453,-0.0683 -0.138965,-0.34726 z m 1.322917,0 c 0.01269,-0.30823 0.07539,-0.37092 0.159852,-0.15985 0.07643,0.19099 0.06703,0.4192 -0.02089,0.50711 -0.08792,0.0879 -0.150453,-0.0683 -0.138964,-0.34726 z m 24.627135,-1.96233 c 0,-0.3638 0.06006,-0.51263 0.133454,-0.33073 0.0734,0.1819 0.0734,0.47956 0,0.66146 -0.0734,0.1819 -0.133454,0.0331 -0.133454,-0.33073 z m -29.897913,-0.26458 c 0,-0.3638 0.06005,-0.51263 0.133452,-0.33073 0.0734,0.1819 0.0734,0.47956 0,0.66146 -0.0734,0.1819 -0.133452,0.0331 -0.133452,-0.33073 z m 29.612444,-0.94809 c 0.0127,-0.30823 0.07539,-0.37092 0.159851,-0.15985 0.07643,0.19099 0.06703,0.4192 -0.02088,0.50711 -0.08792,0.0879 -0.150453,-0.0684 -0.138964,-0.34726 z m -29.104166,-1.05833 c 0.0127,-0.30823 0.07539,-0.37092 0.159852,-0.15986 0.07643,0.191 0.06703,0.4192 -0.02089,0.50712 -0.08792,0.0879 -0.150452,-0.0684 -0.138964,-0.34726 z m 9.311591,-1.69775 c 0,-0.65484 0.0516,-0.92273 0.114662,-0.59531 0.06306,0.32742 0.06306,0.8632 0,1.19063 -0.06306,0.32742 -0.114662,0.0595 -0.114662,-0.59532 z m 8.609577,-8.38282 c 0.190996,-0.0764 0.419199,-0.067 0.507118,0.0209 0.08792,0.0879 -0.06835,0.15045 -0.347265,0.13896 -0.308225,-0.0127 -0.37092,-0.0754 -0.159853,-0.15985 z m -6.229209,-0.2672 c 0.257431,-0.0671 0.614619,-0.0627 0.79375,0.01 0.179132,0.0725 -0.03149,0.12736 -0.468056,0.12197 -0.436563,-0.005 -0.583125,-0.0647 -0.325694,-0.13178 z m 4.889756,0.008 c 0.181901,-0.0734 0.479558,-0.0734 0.661459,0 0.181901,0.0734 0.03307,0.13345 -0.33073,0.13345 -0.363802,0 -0.51263,-0.06 -0.330729,-0.13345 z m -2.910416,-0.28076 c 0.472942,-0.0587 1.246849,-0.0587 1.719791,0 0.472943,0.0587 0.08599,0.10672 -0.859896,0.10672 -0.945885,0 -1.332838,-0.048 -0.859895,-0.10672 z"
         id="path5002" />
      <path
         style="fill:#e54c78;stroke-width:0.264583"
         d="m 39.805642,182.8971 c 0.181901,-0.0734 0.479557,-0.0734 0.661458,0 0.181901,0.0734 0.03307,0.13346 -0.330729,0.13346 -0.363802,0 -0.51263,-0.0601 -0.330729,-0.13346 z m -8.731249,-0.52916 c 0.181901,-0.0734 0.479557,-0.0734 0.661458,0 0.181901,0.0734 0.03307,0.13345 -0.330729,0.13345 -0.363802,0 -0.51263,-0.06 -0.330729,-0.13345 z m -1.555103,-0.81696 c -0.329108,-0.41965 -0.31975,-0.429 0.09989,-0.0999 0.254662,0.19972 0.463021,0.40808 0.463021,0.46302 0,0.21777 -0.217272,0.0776 -0.562915,-0.36312 z m 7.937499,-1.5875 c -0.329107,-0.41965 -0.319749,-0.429 0.09989,-0.0999 0.254661,0.19972 0.463021,0.40808 0.463021,0.46302 0,0.21777 -0.217272,0.0776 -0.562916,-0.36312 z m -8.630777,-0.72761 c 0.0029,-0.58208 0.05712,-0.78905 0.120406,-0.45993 0.06329,0.32912 0.06088,0.80537 -0.0053,1.05833 -0.06622,0.25297 -0.118004,-0.0163 -0.115067,-0.5984 z m 13.752993,0.1323 c 0,-0.50933 0.05445,-0.71769 0.121,-0.46303 0.06655,0.25467 0.06655,0.67138 0,0.92605 -0.06655,0.25466 -0.121,0.0463 -0.121,-0.46302 z m -8.032632,-3.10886 c -0.329108,-0.41964 -0.31975,-0.429 0.09989,-0.0999 0.254662,0.19972 0.463021,0.40808 0.463021,0.46302 0,0.21776 -0.217272,0.0776 -0.562915,-0.36313 z m 6.140053,0.0441 c 0.0127,-0.30823 0.07539,-0.37092 0.159853,-0.15985 0.07643,0.19099 0.06703,0.4192 -0.02089,0.50711 -0.08792,0.0879 -0.150453,-0.0683 -0.138965,-0.34726 z m -4.849534,-4.78339 c 0.181901,-0.0734 0.479558,-0.0734 0.661459,0 0.181901,0.0734 0.03307,0.13345 -0.33073,0.13345 -0.363802,0 -0.51263,-0.06 -0.330729,-0.13345 z m 10.351145,-0.28779 c -0.329107,-0.41965 -0.319749,-0.429 0.0999,-0.0999 0.440729,0.34565 0.580887,0.56292 0.363124,0.56292 -0.05494,0 -0.2633,-0.20836 -0.463021,-0.46302 z m -14.319894,-2.88721 c 0.181901,-0.0734 0.479557,-0.0734 0.661458,0 0.181901,0.0734 0.03307,0.13345 -0.330729,0.13345 -0.363802,0 -0.51263,-0.06 -0.330729,-0.13345 z m 5.693576,-0.008 c 0.257431,-0.0671 0.614619,-0.0627 0.79375,0.01 0.179132,0.0725 -0.03149,0.12736 -0.468056,0.12197 -0.436562,-0.005 -0.583125,-0.0647 -0.325694,-0.13177 z m -0.732639,-1.40415 c 0.263389,-0.29104 0.53842,-0.52917 0.611181,-0.52917 0.07276,0 -0.08321,0.23813 -0.346598,0.52917 -0.263389,0.29104 -0.53842,0.52917 -0.611181,0.52917 -0.07276,0 0.08321,-0.23813 0.346598,-0.52917 z m -7.255153,-0.15434 c 0.01269,-0.30823 0.07539,-0.37092 0.159852,-0.15985 0.07643,0.19099 0.06703,0.4192 -0.02089,0.50711 -0.08792,0.0879 -0.150453,-0.0684 -0.138964,-0.34726 z m 13.758332,-0.26458 c 0.0127,-0.30823 0.07539,-0.37092 0.159853,-0.15986 0.07643,0.191 0.06703,0.4192 -0.02089,0.50712 -0.08792,0.0879 -0.150453,-0.0683 -0.138965,-0.34726 z"
         id="path4998" />
      <path
         style="fill:#ee2964;stroke-width:0.264583"
         d="m 116.58045,187.44032 c -6.43084,-1.82837 -10.77389,-7.14735 -11.18217,-13.69494 -0.60141,-9.64469 8.94163,-17.69937 18.20052,-15.36191 6.84837,1.72892 11.29909,6.97262 11.81613,13.9214 0.72354,9.72401 -9.36183,17.82864 -18.83448,15.13545 z m 8.83941,-4.53964 c 1.78956,-0.92542 1.9627,-4.67307 0.40687,-8.80689 -0.79837,-2.12125 -1.32142,-2.97954 -1.81574,-2.97954 -0.63321,0 -0.68259,0.75239 -0.13347,2.03343 1.2091,2.82072 1.81617,6.1367 1.40449,7.6717 -0.51823,1.93229 -3.38234,0.006 -6.09785,-4.10085 -2.36545,-3.57758 -2.40698,-3.75787 -1.26271,-5.48178 1.11285,-1.67658 1.35226,-1.72555 5.17278,-1.05792 5.99216,1.04712 8.42646,3.00792 5.65705,4.55673 -1.16273,0.65026 -1.41983,1.48648 -0.4975,1.61809 0.81937,0.11693 2.26946,-0.78738 2.84625,-1.77496 0.75914,-1.29983 0.25801,-2.72002 -1.31088,-3.71497 -1.62646,-1.03148 -5.1183,-2.09683 -7.64224,-2.33163 l -2.10646,-0.19597 1.26998,-1.19062 c 3.12129,-2.92624 4.80021,-3.07817 4.73818,-0.42879 -0.0402,1.71637 0.44651,2.40146 1.18289,1.66508 0.31058,-0.31058 0.42826,-0.85586 0.40442,-1.87398 -0.0416,-1.77455 -0.33589,-2.34958 -1.48076,-2.89286 -1.58032,-0.74991 -3.73823,0.27307 -6.50796,3.08519 -1.48983,1.51262 -1.83355,1.73265 -2.8305,1.81194 -1.25862,0.1001 -1.41965,-0.11494 -1.41965,-1.89575 0,-2.30216 0.55804,-2.69453 2.43583,-1.71265 0.99638,0.52099 1.39021,0.61197 1.66432,0.38448 0.51484,-0.42728 0.23866,-0.90817 -0.98765,-1.71971 -1.53655,-1.01684 -2.71995,-0.98847 -3.68201,0.0883 -0.78396,0.87741 -0.93396,1.68443 -0.7837,4.21639 0.0544,0.91672 -0.0181,1.12448 -0.39259,1.12448 -0.94746,0 -3.31549,1.35438 -3.84002,2.19628 -0.86494,1.38827 -0.24454,3.11253 1.44784,4.02394 1.70441,0.91788 2.44174,-0.21483 0.81813,-1.25685 -1.02504,-0.65786 -1.41906,-1.58477 -0.92615,-2.17869 0.29044,-0.34996 3.18252,-1.58097 3.30065,-1.40492 0.0279,0.0415 0.22414,0.54813 0.43621,1.12586 0.3702,1.00852 0.35063,1.13843 -0.49077,3.25767 -1.28189,3.22869 -1.54577,4.5749 -1.15346,5.88432 0.4,1.33511 1.62708,2.20391 2.80125,1.98336 1.5656,-0.29408 3.04906,-1.19833 3.04906,-1.85856 0,-0.87739 -0.47745,-0.92599 -1.89124,-0.19249 -2.57326,1.33506 -3.13581,-0.0747 -1.75655,-4.40213 l 0.5373,-1.68575 0.53089,0.892 c 2.54561,4.27716 4.56548,6.5189 6.80388,7.55124 0.9123,0.42076 1.23528,0.41581 2.10159,-0.0322 z m -9.31937,-12.41507 c -0.0876,-0.22817 0.0572,-0.43041 0.36597,-0.51114 0.59548,-0.15572 0.67082,0.14848 0.14489,0.58497 -0.2808,0.23304 -0.3997,0.21585 -0.51086,-0.0738 z m 5.50704,2.58908 c 0,-0.87335 -0.10445,-1.05839 -0.71959,-1.27472 -1.52832,-0.53748 -2.47838,1.67513 -1.02809,2.39433 1.05411,0.52273 1.74768,0.0784 1.74768,-1.11961 z"
         id="path4996" />
    </g>
    <path
       style="fill:#ffffff;stroke-width:0.142146"
       d="m 56.218603,61.778233 c -1.886469,-0.61061 -3.035963,-1.503672 -3.679753,-2.858863 -0.527122,-1.109602 -0.522258,-2.708476 0.01175,-3.862829 0.71359,-1.542549 2.074966,-2.685006 3.527842,-2.960539 1.535954,-0.291287 3.936478,0.509016 4.618608,1.539783 0.983295,1.48586 0.731055,5.696507 -0.432648,7.222201 -0.820201,1.075339 -2.433172,1.442221 -4.045799,0.920247 z"
       id="path5790"
       transform="matrix(0.26458333,0,0,0.26458333,106.43501,155.84814)" />
    <path
       style="fill:#ffffff;stroke-width:0.142146"
       d="m 56.218603,61.785677 c -1.909718,-0.636319 -3.037834,-1.515055 -3.679753,-2.866307 -0.527122,-1.109602 -0.522258,-2.708476 0.01175,-3.862829 0.71359,-1.542549 2.074966,-2.685006 3.527842,-2.960539 1.535954,-0.291287 4.789352,1.504036 5.471482,2.534803 0.672592,1.016356 0.812608,2.802586 0.276945,4.645201 -0.285179,0.980981 -1.80944,2.015956 -2.549248,2.398028 -0.770559,0.397954 -2.058657,0.444965 -3.059018,0.111643 z"
       id="path5868"
       transform="matrix(0.26458333,0,0,0.26458333,106.43501,155.84814)"
       sodipodi:nodetypes="ssssssss" />
    <path
       style="fill:#ffffff;stroke-width:0.201024"
       d="m 69.855944,95.016581 c -0.608099,-0.203048 -1.874552,-0.757847 -2.81434,-1.232888 -8.080051,-4.084271 -15.540342,-12.502877 -24.72227,-27.897979 -1.1375,-1.907218 -2.130665,-3.467669 -2.207034,-3.467669 -0.179253,0 -3.086018,9.334089 -3.724805,11.960946 -1.619963,6.661706 -1.483621,10.839441 0.400653,12.276646 1.538262,1.173289 3.760415,0.843114 8.118646,-1.206298 3.123765,-1.468917 4.764316,-2.002538 5.55017,-1.805301 1.100192,0.276131 1.671401,2.211814 1.02281,3.466051 -0.738185,1.427491 -3.424348,3.331441 -6.382823,4.524134 -4.40747,1.77685 -7.089783,1.953799 -9.742588,0.642713 -3.754841,-1.855744 -6.09144,-6.024367 -6.101837,-10.886019 -0.0082,-3.821624 1.168103,-8.066554 4.97889,-17.967751 3.238985,-8.41554 3.254391,-8.570835 1.351174,-13.619396 -1.00621,-2.669114 -1.212655,-3.06562 -1.596155,-3.06562 -1.489687,0 -10.63021,3.938639 -12.052275,5.193308 -1.013759,0.894425 -1.214071,2.937686 -0.446685,4.55637 0.64741,1.365614 1.707685,2.537435 3.30668,3.654558 3.261332,2.278501 4.509846,4.233201 3.500015,5.479699 -1.70883,2.109318 -8.263192,-0.861086 -10.969742,-4.97143 -2.780356,-4.222429 -2.457256,-8.865167 0.841587,-12.093085 2.980913,-2.916824 9.535914,-6.38778 12.784575,-6.769596 1.943661,-0.22844 1.814906,0.289357 1.826855,-7.346779 0.0089,-5.712164 0.06144,-6.877649 0.356138,-7.905988 0.569814,-1.988341 1.470459,-3.591537 2.862021,-5.094553 1.491741,-1.611218 3.393676,-2.709832 5.096822,-2.944075 1.402814,-0.192936 3.47134,0.194889 5.315577,0.996611 3.174371,1.379953 7.338264,4.653415 7.687087,6.043233 0.199961,0.796707 -0.124233,1.520916 -0.921294,2.058055 -1.080944,0.728449 -1.753183,0.557654 -6.13411,-1.558483 -3.935095,-1.900785 -5.812807,-2.258032 -7.146022,-1.359579 -1.619423,1.091329 -2.058577,3.062303 -1.959426,8.79413 0.07996,4.622654 0.238411,5.304181 1.404171,6.039741 0.60843,0.383902 0.889265,0.412407 3.278742,0.332791 4.379323,-0.145915 5.055999,-0.550764 11.650388,-6.970346 6.219424,-6.054555 9.587204,-8.648738 13.827581,-10.651305 1.134298,-0.535686 2.656136,-1.118529 3.381862,-1.295206 1.688113,-0.410968 4.231427,-0.411204 5.629607,-5.22e-4 2.59883,0.763347 4.917404,2.519378 5.788621,4.38416 1.315429,2.815589 1.576067,10.138255 0.451354,12.680824 -0.19634,0.443852 -0.690341,1.099696 -1.097784,1.457429 -1.521362,1.335758 -2.552825,1.069365 -3.323727,-0.858408 -0.41525,-1.038404 -0.50082,-1.697801 -0.638216,-4.918134 -0.168561,-3.950743 -0.398354,-5.114622 -1.26982,-6.431496 -0.976012,-1.474851 -3.033333,-1.774808 -5.587668,-0.814681 -2.514221,0.945049 -6.669675,3.913108 -10.720011,7.656836 -3.456074,3.19445 -5.371162,5.039956 -5.299101,5.10656 0.03986,0.03684 2.153071,0.259741 4.696028,0.49534 8.037905,0.74469 14.3772,2.037891 21.121477,4.30873 7.038245,2.369819 11.243896,4.521883 13.850996,7.087663 4.584375,4.511711 4.408238,10.104766 -0.458763,14.567551 -2.89625,2.65571 -6.424112,4.158676 -8.469025,3.608039 -1.667732,-0.449073 -2.054358,-1.521163 -1.067415,-2.959872 0.72194,-1.052405 1.620917,-1.813213 3.467669,-2.93471 2.115107,-1.28446 3.098902,-2.187058 3.701205,-3.395722 0.642043,-1.288415 0.654308,-2.176665 0.04803,-3.478591 C 90.54342,52.714188 82.021749,48.942845 69.855945,46.554206 63.234868,45.25422 58.894309,44.655695 55.985268,44.641559 c -2.588658,-0.01259 -3.020971,0.03486 -3.86313,0.423922 -1.449323,0.669561 -2.803788,2.080702 -4.670484,4.865915 -2.331516,3.478748 -2.79393,4.547968 -2.792046,6.45592 0.0027,2.679294 1.167898,4.984578 6.808005,13.468628 4.937342,7.426929 8.942745,12.221517 13.085663,15.663932 4.907441,4.077671 8.891711,4.884687 10.290498,2.084349 2.346064,-4.69677 0.436249,-17.166418 -4.557973,-29.76014 -1.346255,-3.394792 -1.636002,-4.436759 -1.636002,-5.883272 0,-0.882215 0.08892,-1.121004 0.612399,-1.644479 0.527916,-0.527916 0.715107,-0.596391 1.356914,-0.496361 1.465768,0.22845 2.910172,2.319615 5.022153,7.270928 6.243035,14.636125 7.321802,28.172388 2.756337,34.586275 -0.972984,1.366915 -1.776247,1.985063 -3.814044,2.935077 -1.72947,0.806277 -3.157959,0.928447 -4.727614,0.404328 z M 41.8884,48.057822 c 0.306868,-0.158689 0.895837,-0.662532 1.308819,-1.119655 0.8059,-0.892036 0.912783,-1.648912 0.250681,-1.775188 -0.666333,-0.127083 -2.023311,0.172493 -2.529404,0.55841 -0.612203,0.46683 -0.673502,1.600867 -0.119611,2.212907 0.44394,0.49055 0.391308,0.484582 1.089515,0.123526 z"
       id="path6165"
       transform="matrix(0.26458333,0,0,0.26458333,106.43501,155.84814)" />
  </g>
</svg>
