<?xml version="1.0" encoding="utf-8"?>
<!-- Generator: Adobe Illustrator 23.1.1, SVG Export Plug-In . SVG Version: 6.00 Build 0)  -->
<svg version="1.1" id="Layer_1" xmlns="http://www.w3.org/2000/svg" xmlns:xlink="http://www.w3.org/1999/xlink" x="0px" y="0px"
	 viewBox="0 0 128 128" style="enable-background:new 0 0 128 128;" xml:space="preserve">
<style type="text/css">
	.st0{fill:#F02E65;}
</style>
<path class="st0" d="M107.9,110.5c3.8,0,7.5,0,11.3,0c1.6,0,3.7-0.3,3.8,2.1c0,2.4-1.9,2.3-3.7,2.3c-4.7,0-9.4,0-14.1,0
	c-3.2,0-4.5,1.6-4.7,4.5c-0.1,0.8-0.1,1.7-0.1,2.5c0.1,2.9-1,4-4,4c-21.6-0.1-43.2-0.1-64.9,0c-3.1,0-4.5-1-4.3-4.1
	c0.1-1.2,0.2-2.5-0.1-3.6c-0.7-2-1.9-3.4-4.4-3.4c-4.8,0.1-9.6,0.1-14.4,0c-1.7,0-4.1,0.5-4.2-2.1c-0.1-3,2.5-2.3,4.3-2.3
	c3.8-0.1,7.6,0,11.3,0c0.1-0.5,0.2-0.6,0.2-0.7c-7.8-7.8-7.4-16.5-2.7-25.7c0.1-0.2,0.2-0.4,0.3-0.7c2.8-11,8.7-19.5,19.2-24.6
	c0.5-0.3,0.9-0.7,1.7-1.4c-8.7-5.2-8.4-11.9-4.2-20c3.7-7.1,6.4-14.7,11.1-21.3C57,0,70.8-0.1,82.4,16.1
	c6.4,8.9,10.3,19.2,14.3,29.3c0.9,2.2,0,4-1.1,5.7c-1.6,2.4-3.7,4.4-6,6.7c3.4,2.3,6.5,4.6,9.9,6.7c3.3,2.1,5.5,5,6.8,8.5
	c2,5.1,3.8,10.3,6,15.4c3.1,7.3,2.1,13.8-3.1,19.7C108.6,108.7,107.8,109.2,107.9,110.5z M51,42.5c-1.2,0-3.2-0.2-2.9,1.7
	c0.9,5.1,1.7,10.5,5.4,14.2c7.6,7.7,21.1,4.4,23.5-4.8c0.7-2.7,1.5-5.3,2.5-7.9c1-2.6-0.4-3.3-2.5-3.3c-4.2,0-8.4,0-12.6,0
	C59.9,42.5,55.5,42.4,51,42.5z M93.2,121.5c1,0,2.7,0.9,2.7-1.2c0-2-1.7-1.3-2.7-1.3c-19.6,0-39.1,0-58.7,0c-1,0-2.7-0.7-2.7,1.3
	c0,2,1.7,1.2,2.7,1.2c9.8,0.1,19.7,0,29.5,0C73.7,121.5,83.4,121.5,93.2,121.5z M81.2,25.3c0.3-0.3,0.6-0.6,0.9-1
	c-3.6-6.5-7.5-12.8-15.3-15.2c-0.3,0.2-0.6,0.4-0.8,0.6C71.1,14.9,76.1,20.1,81.2,25.3z M34.1,72.4c-2.9,0-4,0.7-3.9,3.8
	c0.6,11.7,0.9,23.5,1.2,35.3c0.1,2.5,0.8,2.9,3.1,2.9c19.4-0.1,38.9-0.1,58.3,0c2.6,0,3.5-0.5,3.5-3.3c0.2-11.6,0.5-23.3,1-34.9
	c0.1-3.1-1-3.9-3.9-3.8c-9.8,0.2-19.7,0.1-29.5,0.1C54.1,72.5,44.1,72.6,34.1,72.4z"/>
<path class="st0" d="M55.2,96.9c0,0,0-0.4,0-0.7c0.2-1,0.6-2.6,1-4c0.2-0.7,0.4-1.8,0.5-2.3c0.1-0.6,0.3-1.4,0.4-1.8
	c0.1-0.4,0.2-1,0.3-1.4l0.2-0.7h0.9c0.5,0,0.9,0,0.9,0.1c0,0.1-0.2,1.1-0.6,2.5c-0.1,0.6-0.4,1.7-0.6,2.4c-0.2,0.8-0.4,1.8-0.5,2.3
	c-0.1,0.5-0.3,1.4-0.5,2C56.9,97,56.9,97,56.1,97C55.7,97,55.3,97,55.2,96.9z"/>
<path class="st0" d="M52.1,93L51,91.8l1-1.1l1-1.1h1.1c0.6,0,1.1,0,1.1,0.1c0,0.1-0.3,0.5-0.7,0.9c-1.3,1.4-1.3,1.2-0.2,2.2
	c0.5,0.5,0.9,1,0.9,1.1c0,0.1-0.4,0.2-1,0.2h-1L52.1,93z"/>
<path class="st0" d="M59.3,93.9c0-0.1,0.4-0.6,0.9-1.1c1-1.1,1.1-0.9-0.2-2.2c-0.4-0.4-0.7-0.8-0.7-0.9c0-0.1,0.5-0.1,1.1-0.1h1.1
	l1,1.1c1,1.1,1,1.1,0.7,1.4c-0.2,0.2-0.6,0.7-1.1,1.1l-0.8,0.8h-1C59.7,94.1,59.3,94,59.3,93.9z"/>
<path class="st0" d="M55.2,103.5c-2.2-0.5-3.5-1.2-5-2.2c-0.3-0.2-1.9-1.8-2.2-2.2c-0.8-1-1.6-2.6-2.1-4c-0.3-0.9-0.3-1.1-0.3-3.2
	c0-2,0-2.3,0.2-3.1c0.3-0.9,0.7-1.9,1-2.5c0.1-0.2,0.3-0.5,0.3-0.6c0.6-1.1,2.1-2.7,3.3-3.5c2.1-1.5,4.2-2.1,6.8-2.1
	c2.1,0,3.8,0.4,5.3,1.2l0.6,0.3l0.8-0.4c1.7-0.8,3.1-1.1,5.2-1.1c2.7,0,5,0.7,7.1,2.3c1.2,0.9,3,2.9,3,3.3c0,0,0,0.1,0.1,0.1
	c0.2,0.1,0.9,1.6,1.2,2.7l0.4,1.1v4.6l-0.4,1.1c-0.3,1.1-1.1,2.7-1.5,3.2c-0.5,0.7-1.4,1.7-1.9,2.1c-0.7,0.6-2.1,1.6-3,2
	c-1.8,0.8-2.6,1-5,1c-2.4,0-3.4-0.2-5.2-1.1l-0.7-0.4l-0.6,0.3c-1.7,0.9-2.8,1.1-5.2,1.1C56.5,103.6,55.4,103.6,55.2,103.5z
	 M58.9,101c1.1-0.2,1.5-0.3,2.6-0.8c0.9-0.5,1.5-0.9,2.3-1.6c3-2.9,3.8-7.1,2-10.8c-0.3-0.6-0.5-1.1-0.6-1.1
	c-1.4-1.7-2.3-2.5-3.6-3.2c-1.7-0.9-2-0.9-4.1-0.9c-1.7,0-2,0-2.6,0.3c-1.6,0.5-2.8,1.2-3.8,2.3c-0.7,0.7-1.6,1.9-1.6,2.1
	c0,0.1,0,0.2-0.1,0.2c-0.1,0-0.2,0.2-0.3,0.5c-1.1,2.4-1.1,5.2,0,7.7c0.7,1.5,2.2,3.2,3.6,4c1.1,0.6,2.3,1.1,3.4,1.3
	C57.2,101.2,57.6,101.2,58.9,101z"/>
</svg>
