<svg width="128" height="128" viewBox="0 0 128 128" fill="none" xmlns="http://www.w3.org/2000/svg">
<path d="M29.7146 40L34.6666 74.6667H93.3333L98.2853 40H29.7146Z" fill="#F02E65" fill-opacity="0.58"/>
<path d="M104 40.0001V33.3335C104 31.1255 102.208 29.3335 100 29.3335H28C25.792 29.3335 24 31.1255 24 33.3335V40.0001H104Z" fill="#FEF8FA"/>
<path d="M35.0481 77.3335L40.0001 112H88.0001L92.9521 77.3335H35.0481Z" fill="#EB7B9B"/>
<path d="M53.3332 74.6668C53.3332 72.7148 53.8958 70.9095 54.8132 69.3335H33.9065L35.8105 82.6668H57.0132C54.7758 80.7121 53.3332 77.8695 53.3332 74.6668Z" fill="#F02E65"/>
<path d="M73.1866 69.3335C74.1039 70.9095 74.6666 72.7148 74.6666 74.6668C74.6666 77.8695 73.2239 80.7121 70.9866 82.6668H92.1892L94.0932 69.3335H73.1866Z" fill="#F02E65"/>
<path d="M95.9999 16H31.9999L29.3333 29.3333H98.6666L95.9999 16Z" fill="#F02E65"/>
<path d="M64.0001 56.0001C74.3094 56.0001 82.6669 64.3575 82.6669 74.6668C82.6669 84.9761 74.3094 93.3335 64.0001 93.3335C53.6907 93.3335 45.3335 84.9761 45.3335 74.6668C45.3335 64.3575 53.6907 56.0001 64.0001 56.0001ZM64.0001 53.3335C52.2374 53.3335 42.6667 62.9041 42.6667 74.6668C42.6667 86.4295 52.2374 96.0001 64.0001 96.0001C75.7627 96.0001 85.3334 86.4295 85.3334 74.6668C85.3334 62.9041 75.7627 53.3335 64.0001 53.3335Z" fill="#F02E65"/>
<path d="M63.9999 56C53.6906 56 45.3333 64.3573 45.3333 74.6667C45.3333 84.976 53.6906 93.3333 63.9999 93.3333C74.3093 93.3333 82.6666 84.976 82.6666 74.6667C82.6666 64.3573 74.3093 56 63.9999 56ZM63.9999 85.3333C58.1093 85.3333 53.3333 80.5573 53.3333 74.6667C53.3333 68.776 58.1093 64 63.9999 64C69.8906 64 74.6666 68.776 74.6666 74.6667C74.6666 80.5573 69.8906 85.3333 63.9999 85.3333Z" fill="#EB7B9B"/>
<path d="M76 72H52V80H76V72Z" fill="#EB7B9B"/>
<circle cx="64" cy="75" r="17" fill="#EB7B9B"/>
<path fill-rule="evenodd" clip-rule="evenodd" d="M67.8957 83.316C66.4764 83.316 65.1459 82.9355 64.0008 82.271C63.1417 82.7682 62.187 83.101 61.1847 83.2412C59.1436 83.5267 57.0727 82.9895 55.4276 81.7481C54.6122 81.1337 53.9259 80.3646 53.4079 79.4849C52.8898 78.6051 52.5502 77.6319 52.4085 76.6209C52.2667 75.6098 52.3256 74.5807 52.5817 73.5924C52.8379 72.6041 53.2862 71.676 53.9012 70.861C54.5162 70.0461 55.2857 69.3603 56.1659 68.8429C57.046 68.3255 58.0194 67.9866 59.0306 67.8455C60.0418 67.7045 61.0708 67.7641 62.0589 68.0209C62.7409 68.1982 63.3943 68.467 64.0014 68.819C65.1464 68.1547 66.4766 67.7743 67.8957 67.7743C72.1875 67.7743 75.6666 71.2533 75.6666 75.5451C75.6666 79.8369 72.1875 83.316 67.8957 83.316ZM62.7002 69.7662L62.7025 69.7642C61.6234 69.28 60.4209 69.1035 59.2309 69.27C57.5666 69.5027 56.0629 70.387 55.0507 71.7285C54.0384 73.0699 53.6005 74.7584 53.8332 76.4227C54.066 78.087 54.9503 79.5907 56.2917 80.6029C57.6331 81.6151 59.3217 82.0531 60.986 81.8203C62.6503 81.5876 64.154 80.7032 65.1662 79.3619C66.1784 78.0204 66.6164 76.3319 66.3836 74.6676C66.2762 73.8998 66.0302 73.1661 65.6645 72.4992C65.0022 71.2961 63.9603 70.3313 62.7002 69.7662Z" fill="white"/>
<path d="M60.3168 72.8565C60.3074 72.8795 60.1887 73.3462 60.0607 73.8997C59.9279 74.4532 59.7175 75.3269 59.5988 75.8438C59.3698 76.7907 59.2326 77.4128 59.2326 77.4952C59.2326 77.5179 59.3745 77.5364 59.5482 77.5364H59.864L60.0056 76.9049C60.0881 76.5619 60.2711 75.7751 60.4175 75.1576C60.5639 74.54 60.7422 73.7898 60.8109 73.4878C60.8794 73.1858 60.948 72.9116 60.9619 72.8795C60.9756 72.8384 60.8977 72.8247 60.6599 72.8247C60.4814 72.8247 60.3257 72.8384 60.3168 72.8565ZM57.8601 74.8373L57.4393 75.2949L57.5629 75.4411C57.6313 75.5234 57.8191 75.7294 57.9792 75.8987L58.272 76.2096H59.1045L58.7112 75.7841C58.496 75.5557 58.3176 75.336 58.3176 75.3086C58.3176 75.2766 58.4824 75.0708 58.6837 74.8512C58.8849 74.6272 59.0496 74.4347 59.0496 74.4119C59.0496 74.3936 58.8758 74.3799 58.6654 74.3799H58.2857L57.8601 74.8373ZM61.0623 74.4073C61.0623 74.4212 61.1401 74.508 61.236 74.6041C61.5931 74.9608 61.8447 75.2629 61.8309 75.3222C61.8218 75.3544 61.6479 75.5692 61.4376 75.7934L61.058 76.2096H61.4833L61.9088 76.2051L62.2974 75.7798C62.5126 75.5421 62.6863 75.3313 62.6863 75.3039C62.6863 75.2812 62.5034 75.0661 62.2746 74.8238L61.863 74.3799H61.4648C61.2407 74.3799 61.0623 74.3936 61.0623 74.4073Z" fill="white"/>
</svg>
