<svg width="128" height="128" viewBox="0 0 128 128" fill="none" xmlns="http://www.w3.org/2000/svg">
<path d="M29.7146 40L34.6666 74.6667H93.3333L98.2853 40H29.7146Z" fill="#F02E65" fill-opacity="0.58"/>
<path d="M104 40V33.3334C104 31.1254 102.208 29.3334 100 29.3334H28C25.792 29.3334 24 31.1254 24 33.3334V40H104Z" fill="#FEF8FA"/>
<path d="M35.0481 77.3334L40.0001 112H88.0001L92.9521 77.3334H35.0481Z" fill="#EB7B9B"/>
<path d="M64.0001 88C71.3639 88 77.3334 82.0305 77.3334 74.6667C77.3334 67.3029 71.3639 61.3334 64.0001 61.3334C56.6363 61.3334 50.6667 67.3029 50.6667 74.6667C50.6667 82.0305 56.6363 88 64.0001 88Z" fill="#FEF8FA"/>
<path d="M53.3332 74.6667C53.3332 72.7147 53.8958 70.9094 54.8132 69.3334H33.9065L35.8105 82.6667H57.0132C54.7758 80.712 53.3332 77.8694 53.3332 74.6667Z" fill="#F02E65"/>
<path d="M73.1866 69.3334C74.1039 70.9094 74.6666 72.7147 74.6666 74.6667C74.6666 77.8694 73.2239 80.712 70.9866 82.6667H92.1892L94.0932 69.3334H73.1866Z" fill="#F02E65"/>
<path d="M95.9999 16H31.9999L29.3333 29.3333H98.6666L95.9999 16Z" fill="#F02E65"/>
<path d="M64.0001 56C74.3094 56 82.6667 64.3574 82.6667 74.6667C82.6667 84.976 74.3094 93.3334 64.0001 93.3334C53.6907 93.3334 45.3334 84.976 45.3334 74.6667C45.3334 64.3574 53.6907 56 64.0001 56ZM64.0001 53.3334C52.2374 53.3334 42.6667 62.904 42.6667 74.6667C42.6667 86.4294 52.2374 96 64.0001 96C75.7627 96 85.3334 86.4294 85.3334 74.6667C85.3334 62.904 75.7627 53.3334 64.0001 53.3334Z" fill="#F02E65"/>
<path d="M63.9999 56C53.6906 56 45.3333 64.3573 45.3333 74.6667C45.3333 84.976 53.6906 93.3333 63.9999 93.3333C74.3093 93.3333 82.6666 84.976 82.6666 74.6667C82.6666 64.3573 74.3093 56 63.9999 56ZM63.9999 85.3333C58.1093 85.3333 53.3333 80.5573 53.3333 74.6667C53.3333 68.776 58.1093 64 63.9999 64C69.8906 64 74.6666 68.776 74.6666 74.6667C74.6666 80.5573 69.8906 85.3333 63.9999 85.3333Z" fill="#EB7B9B"/>
</svg>
