<?xml version="1.0" encoding="utf-8"?>
<!-- Generator: Adobe Illustrator 23.1.1, SVG Export Plug-In . SVG Version: 6.00 Build 0)  -->
<svg version="1.1" id="Layer_1" xmlns="http://www.w3.org/2000/svg" xmlns:xlink="http://www.w3.org/1999/xlink" x="0px" y="0px"
	 viewBox="0 0 128 128" style="enable-background:new 0 0 128 128;" xml:space="preserve">
<style type="text/css">
	.st0{fill:#FEFEFE;}
	.st1{fill:#F02E65;}
	.st2{display:none;fill:#FEFEFE;}
</style>
<g>
	<rect x="40" y="16" class="st0" width="48" height="39"/>
	<path class="st1" d="M112.2,34c0,25.9,0,51.9,0,77.8c0,0.3-0.1,0.4-0.4,0.4c-31.9,0-63.8,0-95.7,0c-0.1-0.2,0-0.3,0-0.5
		c0-31.7,0-63.4,0-95.1c0-0.1,0-0.2,0-0.3c0-0.2,0.1-0.3,0.3-0.3c0.1,0,0.2,0,0.3,0c7.7,0,15.4,0,23.1,0c0.6,0,0.6,0,0.6,0.6
		c0,0.2,0,0.3,0,0.5c0,12.4,0,24.7,0,37.1c0,0.8,0,0.8,0.8,0.8c15.4,0,30.8,0,46.2,0c0.8,0,0.8,0,0.8-0.8c0-12.4,0-24.8,0-37.2
		c0-1,0-1,1-1c1.6,0,3.2,0,4.8,0c0.3,0,0.6,0.1,0.8,0.3c5.7,5.7,11.4,11.4,17.2,17.2C112,33.7,112.1,33.9,112.2,34z"/>
	<path class="st2" d="M112.2,34c-0.2,0-0.2-0.2-0.3-0.3c-5.8-5.8-11.6-11.6-17.4-17.4c-0.2-0.2-0.4-0.3-0.7-0.3c-1.7,0-3.5,0-5.2,0
		c-0.3,0-0.4,0.1-0.4,0.4c0,12.7,0,25.4,0,38.2c0,0.4-0.1,0.5-0.5,0.5c-15.7,0-31.4,0-47.1,0c-0.4,0-0.5-0.1-0.5-0.5
		c0-12.7,0-25.4,0-38.1c0-0.4-0.1-0.5-0.5-0.5c-7.7,0-15.4,0-23.1,0c-0.4,0-0.5,0.1-0.5,0.5c0,31.9,0,63.8,0,95.6c0,0-0.1,0-0.1,0
		c0-0.1,0-0.2,0-0.3c0-31.8,0-63.6,0-95.5c0-0.3,0.1-0.4,0.4-0.4c31.8,0,63.6,0,95.4,0c0.3,0,0.4,0.1,0.4,0.4
		C112.2,22.3,112.2,28.2,112.2,34z"/>
	<path class="st0" d="M64.2,106.2c-11.9,0-23.7,0-35.6,0c-0.4,0-0.5-0.1-0.4-0.4c0-13.7,0-27.4,0-41.2c0-0.4,0.1-0.4,0.4-0.4
		c23.7,0,47.5,0,71.2,0c0.4,0,0.5,0.1,0.4,0.4c0,13.7,0,27.4,0,41.2c0,0.4-0.1,0.4-0.4,0.4C87.9,106.2,76,106.2,64.2,106.2z"/>
	<path class="st1" d="M82.2,35.6c0,4.4,0,8.7,0,13.1c0,0.3-0.1,0.4-0.4,0.4c-3.7,0-7.5,0-11.2,0c-0.3,0-0.4-0.1-0.4-0.4
		c0-8.7,0-17.5,0-26.2c0-0.3,0.1-0.4,0.4-0.4c3.7,0,7.5,0,11.2,0c0.3,0,0.4,0.1,0.4,0.4C82.2,26.9,82.2,31.3,82.2,35.6z"/>
	<g>
		<path class="st1" d="M56.1,89.8c0,0,0-0.4,0-0.7c0.2-1,0.6-2.6,1-4c0.2-0.7,0.4-1.8,0.5-2.3c0.1-0.6,0.3-1.4,0.4-1.8
			c0.1-0.4,0.2-1,0.3-1.4l0.2-0.7h0.9c0.5,0,0.9,0,0.9,0.1s-0.2,1.1-0.6,2.5c-0.1,0.6-0.4,1.7-0.6,2.4c-0.2,0.8-0.4,1.8-0.5,2.3
			s-0.3,1.4-0.5,2c-0.3,1.7-0.3,1.7-1.1,1.7C56.6,89.9,56.2,89.9,56.1,89.8z"/>
		<path class="st1" d="M53,85.9l-1.1-1.2l1-1.1l1-1.1H55c0.6,0,1.1,0,1.1,0.1s-0.3,0.5-0.7,0.9c-1.3,1.4-1.3,1.2-0.2,2.2
			c0.5,0.5,0.9,1,0.9,1.1s-0.4,0.2-1,0.2h-1L53,85.9z"/>
		<path class="st1" d="M60.2,86.8c0-0.1,0.4-0.6,0.9-1.1c1-1.1,1.1-0.9-0.2-2.2c-0.4-0.4-0.7-0.8-0.7-0.9s0.5-0.1,1.1-0.1h1.1l1,1.1
			c1,1.1,1,1.1,0.7,1.4c-0.2,0.2-0.6,0.7-1.1,1.1l-0.8,0.8h-1C60.6,87,60.2,86.9,60.2,86.8z"/>
		<path class="st1" d="M56.1,96.4c-2.2-0.5-3.5-1.2-5-2.2c-0.3-0.2-1.9-1.8-2.2-2.2c-0.8-1-1.6-2.6-2.1-4c-0.3-0.9-0.3-1.1-0.3-3.2
			c0-2,0-2.3,0.2-3.1c0.3-0.9,0.7-1.9,1-2.5c0.1-0.2,0.3-0.5,0.3-0.6c0.6-1.1,2.1-2.7,3.3-3.5c2.1-1.5,4.2-2.1,6.8-2.1
			c2.1,0,3.8,0.4,5.3,1.2l0.6,0.3l0.8-0.4c1.7-0.8,3.1-1.1,5.2-1.1c2.7,0,5,0.7,7.1,2.3c1.2,0.9,3,2.9,3,3.3c0,0,0,0.1,0.1,0.1
			c0.2,0.1,0.9,1.6,1.2,2.7l0.4,1.1v4.6l-0.4,1.1c-0.3,1.1-1.1,2.7-1.5,3.2c-0.5,0.7-1.4,1.7-1.9,2.1c-0.7,0.6-2.1,1.6-3,2
			c-1.8,0.8-2.6,1-5,1s-3.4-0.2-5.2-1.1L64.1,95l-0.6,0.3c-1.7,0.9-2.8,1.1-5.2,1.1C57.4,96.5,56.3,96.5,56.1,96.4z M59.8,93.9
			c1.1-0.2,1.5-0.3,2.6-0.8c0.9-0.5,1.5-0.9,2.3-1.6c3-2.9,3.8-7.1,2-10.8c-0.3-0.6-0.5-1.1-0.6-1.1c-1.4-1.7-2.3-2.5-3.6-3.2
			c-1.7-0.9-2-0.9-4.1-0.9c-1.7,0-2,0-2.6,0.3C54.2,76.3,53,77,52,78.1c-0.7,0.7-1.6,1.9-1.6,2.1c0,0.1,0,0.2-0.1,0.2
			s-0.2,0.2-0.3,0.5c-1.1,2.4-1.1,5.2,0,7.7c0.7,1.5,2.2,3.2,3.6,4c1.1,0.6,2.3,1.1,3.4,1.3C58.1,94.1,58.5,94.1,59.8,93.9z"/>
	</g>
</g>
</svg>
