<?xml version="1.0" encoding="utf-8"?>
<!-- Generator: Adobe Illustrator 23.1.1, SVG Export Plug-In . SVG Version: 6.00 Build 0)  -->
<svg version="1.1" id="Layer_1" xmlns="http://www.w3.org/2000/svg" xmlns:xlink="http://www.w3.org/1999/xlink" x="0px" y="0px"
	 viewBox="0 0 128 128" style="enable-background:new 0 0 128 128;" xml:space="preserve">
<style type="text/css">
	.st0{fill:#F02E65;}
</style>
<g transform="translate(-3.3359375,285.2793)">
	<path class="st0" d="M66.1-249.6c0,0.4-0.4,0.4-0.4,0.4h-0.4c-0.4,0-0.4-0.4-0.7-0.7c0,0-0.4-0.4-0.4-0.7c0-0.4,0-0.4,0.4-0.4
		l0.7,0.4C65.8-250.3,66.1-249.9,66.1-249.6 M59.6-253.2c0-1.8-0.7-2.9-1.8-2.9c0,0,0,0.4-0.4,0.4v0.7h1.1c0,0.7,0.4,1.1,0.4,1.8
		H59.6 M72.3-255c0.7,0,1.1,0.7,1.4,1.8h0.7c-0.4-0.4-0.4-0.7-0.4-1.1c0-0.4,0-0.7-0.4-1.1c-0.4-0.4-0.7-0.7-1.1-0.7
		c0,0-0.4,0.4-0.7,0.4C71.9-255.4,72.3-255.4,72.3-255 M61.4-249.2c-0.4,0-0.4,0-0.4-0.4c0-0.4,0-0.7,0.4-1.1c0.7,0,1.1-0.4,1.1-0.4
		c0.4,0,0.4,0.4,0.4,0.4c0,0.4-0.4,0.7-1.1,1.4H61.4 M57.4-249.6c-1.4-0.7-1.8-1.8-1.8-3.6c0-1.1,0-1.8,0.7-2.5
		c0.4-0.7,1.1-1.1,1.8-1.1s1.1,0.4,1.8,1.1c0.4,1.1,0.7,2.2,0.7,3.3v0.4v0.4h0.4v-0.4c0.4,0,0.4-0.7,0.4-2.2c0-1.1,0-2.2-0.7-3.3
		s-1.4-1.8-2.9-1.8c-1.1,0-2.2,0.7-2.5,1.8c-0.7,1.4-0.9,2.5-0.9,4.3c0,1.4,0.5,2.9,2,4.3C56.7-249.2,57.1-249.2,57.4-249.6
		 M102.7-198.5c0.4,0,0.4-0.1,0.4-0.5c0-0.8-0.4-1.7-1.4-2.8c-1.1-1.1-2.9-1.8-5.1-2.1c-0.4,0-0.7,0-0.7,0c-0.4-0.1-0.4-0.1-0.7-0.1
		c-0.4,0-1.1-0.1-1.4-0.2c1.1-3.4,1.4-6.3,1.4-8.9c0-3.6-0.7-6.2-2.2-8.3c-1.4-2.2-2.9-3.3-4.7-3.6c-0.4,0.4-0.4,0.4-0.4,0.7
		c1.8,0.7,3.6,2.2,4.7,4.3c1.1,2.5,1.4,4.7,1.4,7.2c0,2-0.4,5-1.8,8.9c-1.4,0.6-2.9,1.9-4,4c0,0.3,0,0.5,0.4,0.5
		c0,0,0.4-0.3,0.7-0.9c0.7-0.6,1.1-1.2,1.8-1.8c1.1-0.6,1.8-0.9,2.9-0.9c1.8,0,3.6,0.3,4.7,0.8c1.4,0.5,2.2,1,2.5,1.6
		c0.4,0.5,0.7,1,1.1,1.5C102.3-198.7,102.7-198.5,102.7-198.5 M69.4-251c-0.4-0.4-0.4-1.1-0.4-1.8c0-1.4,0-2.2,0.7-3.3
		c0.7-0.7,1.4-1.1,2.2-1.1c1.1,0,1.8,0.7,2.5,1.4c0.4,1.1,0.7,1.8,0.7,2.9c0,1.8-0.7,2.9-2.2,3.3c0,0,0.4,0.4,0.7,0.4
		c0.7,0,1.1,0.4,1.8,0.7c0.4-2.2,0.7-3.6,0.7-5.4c0-2.2-0.4-3.6-1.1-4.7c-1.1-1.1-2.2-1.4-3.6-1.4c-1.1,0-2.2,0.4-3.3,1.1
		c-0.7,1.1-1.1,1.8-1.1,2.9c0,1.8,0.4,3.3,1.1,4.7C68.7-251.4,69-251,69.4-251 M73.7-245.2c-4.7,3.3-8.3,4.7-11.2,4.7
		c-2.5,0-5.1-1.1-7.2-2.9c0.4,0.7,0.7,1.4,1.1,1.8l2.2,2.2c1.4,1.4,3.3,2.2,5.1,2.2c2.5,0,5.4-1.4,9-4l3.3-2.2
		c0.7-0.7,1.4-1.4,1.4-2.5c0-0.4,0-0.7-0.4-0.7c-0.4-0.7-2.2-1.8-5.8-2.9c-3.3-1.4-5.8-2.2-7.2-2.2c-1.1,0-2.9,0.7-5.4,2.2
		c-2.2,1.4-3.6,2.9-3.6,4.3c0,0,0.4,0.4,0.7,1.1c2.2,1.8,4.3,2.9,6.5,2.9c2.9,0,6.5-1.4,11.2-5.1v0.7
		C73.7-245.6,73.7-245.2,73.7-245.2 M82.1-172.1c1.4,2.7,4,4.1,6.9,4.1c0.7,0,1.4-0.1,2.2-0.3c0.7-0.1,1.4-0.4,1.8-0.7
		c0.4-0.3,0.7-0.5,1.1-0.8c0.7-0.3,0.7-0.4,1.1-0.6l6.2-5.3c1.4-1.2,2.9-2.2,4.7-3c1.4-0.9,2.9-1.4,3.6-1.8c1.1-0.3,1.8-0.7,2.5-1.3
		c0.4-0.5,0.7-1.2,0.7-2.1c0-1-0.7-1.8-1.4-2.4c-0.7-0.6-1.4-1-2.2-1.2c-0.7-0.3-1.4-0.8-2.5-1.8c-0.7-0.9-1.4-2.2-1.8-3.9l-0.4-2.1
		c-0.4-1-0.4-1.7-0.7-2.1c0-0.1,0-0.1-0.4-0.1s-1.1,0.3-1.4,0.9c-0.7,0.6-1.4,1.3-2.2,2c-0.4,0.7-1.4,1.4-2.2,2
		c-1.1,0.6-2.2,0.9-2.9,0.9c-2.9,0-4.3-0.8-5.4-2.4c-0.7-1.2-1.1-2.5-1.4-4c-0.7-0.6-1.1-0.9-1.8-0.9c-1.8,0-2.5,1.9-2.5,5.7v1.2
		v4.2v3.2v1.6v1.1c0,0.3-0.4,1-0.4,2.2c-0.4,1.1-0.4,2.4-0.4,3.8L82.1-172.1L82.1-172.1 M29.6-174c3.4,0.5,7.2,1.5,11.6,3.2
		c4.4,1.6,7.1,2.4,8,2.4c2.5,0,4.6-1.1,6.4-3.3c0.4-0.7,0.4-1.5,0.4-2.5c0-3.4-2.1-7.7-6.2-13l-2.5-3.3c-0.5-0.7-1.1-1.7-1.9-3.1
		c-0.8-1.4-1.4-2.5-2-3.3c-0.5-0.8-1.2-1.7-2.2-2.5c-0.9-0.8-2-1.4-3.2-1.7c-1.5,0.3-2.6,0.8-3.1,1.5c-0.5,0.7-0.8,1.4-0.9,2.2
		c-0.1,0.8-0.3,1.3-0.7,1.5c-0.4,0.2-1,0.4-1.8,0.6c-0.2,0-0.5,0-1,0h-1c-1.9,0-3.2,0.2-3.9,0.6c-0.9,1-1.4,2.2-1.4,3.5
		c0,0.6,0.1,1.6,0.4,2.9c0.3,1.3,0.4,2.4,0.4,3.2c0,1.5-0.4,3-1.3,4.5c-0.9,1.6-1.4,2.7-1.4,3.5C22.8-175.6,25.2-174.6,29.6-174
		 M41.6-206.9c0-2.5,0.7-5.2,2-8.5c1.3-3.3,2.6-5.4,3.9-6.9c-0.1-0.4-0.3-0.4-0.5-0.4l-0.4-0.4c-1,1.1-2.3,3.6-3.8,7.2
		c-1.5,3.3-2.3,6.3-2.3,8.5c0,1.6,0.4,3,1.1,4.3c0.8,1.2,2.7,2.9,5.8,5.1l3.8,2.5c4.1,3.5,6.3,6,6.3,7.5c0,0.8-0.4,1.5-1.4,2.4
		c-0.7,0.9-1.7,1.3-2.5,1.3c-0.1,0-0.1,0.1-0.1,0.3c0,0,0.4,0.8,1.1,2.2c1.5,2.1,4.8,3.1,9.1,3.1c8,0,14.1-3.3,18.8-9.8
		c0-1.8,0-2.9-0.4-3.4v-1.3c0-2.4,0.4-4.1,1.1-5.3s1.4-1.7,2.5-1.7c0.7,0,1.4,0.3,2.2,0.8c0.4-2.8,0.4-5.2,0.4-7.4
		c0-3.3,0-6-0.7-8.5c-0.4-2.2-1.1-4-1.8-5.4c-0.7-1.1-1.4-2.2-2.2-3.3c-0.7-1.1-1.1-2.2-1.8-3.3c-0.4-1.4-0.7-2.5-0.7-4.3
		c-1.1-1.8-1.8-3.6-2.9-5.4c-0.7-1.8-1.4-3.6-2.2-5.1l-3.3,2.5c-3.6,2.5-6.5,3.6-9,3.6c-2.2,0-4-0.4-5.1-1.8l-2.2-1.8
		c0,1.1-0.4,2.5-1.1,4l-2.3,4.3c-1,2.5-1.6,4-1.7,5.1c-0.1,0.7-0.3,1.4-0.3,1.4l-2.7,5.4c-2.9,5.4-4.4,10.5-4.4,14.6
		c0,0.8,0.1,1.7,0.2,2.6C42.4-203.4,41.6-204.9,41.6-206.9 M67.5-172.7c-4.7,0-8.3,0.6-10.9,1.9v-0.1c-1.8,2.2-3.8,3.3-6.7,3.3
		c-1.8,0-4.6-0.7-8.3-2.1c-3.8-1.3-7.2-2.3-10.1-3c-0.3-0.1-0.9-0.2-2-0.4c-1-0.2-2-0.3-2.8-0.5c-0.8-0.2-1.6-0.4-2.6-0.7
		c-0.9-0.3-1.6-0.7-2.2-1.1c-0.5-0.5-0.7-1-0.7-1.5c0-0.6,0.1-1.2,0.4-1.9c0.2-0.4,0.5-0.8,0.7-1.2c0.3-0.4,0.5-0.8,0.6-1.1
		c0.2-0.3,0.4-0.7,0.5-1c0.1-0.3,0.3-0.7,0.4-1c0.1-0.4,0.1-0.7,0.1-1.1c0-0.4-0.1-1.4-0.4-3.4c-0.3-1.9-0.4-3.1-0.4-3.6
		c0-1.6,0.4-2.9,1.2-3.8c0.8-0.9,1.6-1.4,2.4-1.4h4.2c0.3,0,0.8-0.2,1.6-0.6c0.3-0.6,0.5-1,0.6-1.5c0.2-0.4,0.3-0.8,0.3-0.9
		c0.1-0.2,0.1-0.4,0.2-0.6c0.1-0.3,0.3-0.5,0.6-0.8c-0.3-0.4-0.4-0.8-0.4-1.4c0-0.4,0-0.8,0.1-1c0-1.3,0.6-3.1,1.9-5.6L37-211
		c1-2,1.8-3.4,2.4-4.9c0.6-1.4,1.3-3.6,2-6.5c0.6-2.5,2-5.1,4.1-7.6l2.7-3.3c1.9-2.2,3.1-4,3.8-5.4c0.7-1.4,1-3.3,1-4.7
		c0-0.7-0.2-2.9-0.6-6.5c-0.4-3.6-0.5-7.2-0.5-10.5c0-2.5,0.2-4.3,0.7-6.2c0.5-1.8,1.3-3.6,2.5-5.1c1.1-1.4,2.5-2.9,4.7-3.6
		c2.2-0.7,4.7-1.1,7.6-1.1c1.1,0,2.2,0,3.3,0.4c1.1,0,2.5,0.4,4.3,1.1c1.4,0.7,2.9,1.4,4,2.5c1.4,1.1,2.5,2.9,3.6,4.7
		c0.7,2.2,1.4,4.3,1.8,7.2c0.4,1.8,0.4,3.6,0.7,6.2c0,2.2,0.4,3.6,0.4,4.7c0.4,1.1,0.4,2.5,0.7,4.3c0.4,1.4,0.7,2.9,1.4,4
		c0.7,1.4,1.4,2.9,2.5,4.3c1.1,1.8,2.5,3.6,4,5.8c3.3,3.6,5.8,7.6,7.2,11.6c1.8,3.6,2.9,8.3,2.9,13.4c0,2.5-0.4,4.9-1.1,7.3
		c0.7,0,1.1,0.3,1.4,0.8s0.7,1.6,1.1,3.3l0.4,2.7c0.4,0.8,0.7,1.6,1.8,2.2c0.7,0.7,1.4,1.2,2.5,1.6c0.7,0.4,1.8,0.9,2.5,1.5
		c0.7,0.7,1.1,1.5,1.1,2.3c0,1.2-0.4,2.1-1.1,2.8c-0.7,0.7-1.4,1.2-2.5,1.6c-0.7,0.4-2.2,1.1-4.3,2.1c-1.8,1.1-3.6,2.4-5.4,3.9
		l-3.6,3.1c-1.4,1.4-2.9,2.4-4,3c-1.1,0.7-2.5,1-4,1l-2.5-0.3c-2.9-0.8-4.7-2.2-5.8-4.4C75.1-172.4,70.4-172.7,67.5-172.7"/>
</g>
</svg>
