<?xml version="1.0" encoding="UTF-8" standalone="no"?>
<!-- Created with Inkscape (http://www.inkscape.org/) -->

<svg
   width="28.487862mm"
   height="28.442158mm"
   viewBox="0 0 28.487862 28.442158"
   version="1.1"
   id="svg16"
   inkscape:version="1.1.1 (3bf5ae0d25, 2021-09-20)"
   sodipodi:docname="Pin.svg"
   xmlns:inkscape="http://www.inkscape.org/namespaces/inkscape"
   xmlns:sodipodi="http://sodipodi.sourceforge.net/DTD/sodipodi-0.dtd"
   xmlns="http://www.w3.org/2000/svg"
   xmlns:svg="http://www.w3.org/2000/svg">
  <sodipodi:namedview
     id="namedview18"
     pagecolor="#ffffff"
     bordercolor="#666666"
     borderopacity="1.0"
     inkscape:pageshadow="2"
     inkscape:pageopacity="0.0"
     inkscape:pagecheckerboard="0"
     inkscape:document-units="mm"
     showgrid="false"
     inkscape:snap-global="false"
     fit-margin-top="0"
     fit-margin-left="0"
     fit-margin-right="0"
     fit-margin-bottom="0"
     inkscape:zoom="3.5175189"
     inkscape:cx="234.96675"
     inkscape:cy="71.641405"
     inkscape:window-width="1920"
     inkscape:window-height="986"
     inkscape:window-x="-11"
     inkscape:window-y="-11"
     inkscape:window-maximized="1"
     inkscape:current-layer="layer1-5" />
  <defs
     id="defs13" />
  <g
     inkscape:label="Layer 1"
     inkscape:groupmode="layer"
     id="layer1"
     transform="translate(-8.2082557,-99.361986)">
    <g
       inkscape:label="Layer 1"
       id="layer1-5"
       transform="translate(-44.737228,15.748506)">
      <path
         style="fill:none;stroke-width:0.353553"
         d="m 306.88434,73.85456 c -0.38891,-0.09984 -1.9799,-0.500243 -3.53553,-0.889774 -3.625,-0.907706 -8.79992,-3.356166 -11.81054,-5.588031 -6.32939,-4.69217 -10.66702,-11.337139 -12.65482,-19.386369 -0.92229,-3.734648 -0.83348,-11.755702 0.17464,-15.773538 3.18195,-12.681544 13.50316,-22.3724947 26.42074,-24.807377 4.05492,-0.7643266 10.09807,-0.5427342 14.13344,0.51825 3.78029,0.9939208 10.04457,4.101916 13.12405,6.511438 4.26321,3.335733 8.33608,9.564657 10.32431,15.789656 3.44117,10.7741 0.85698,23.018341 -6.80806,32.257487 -4.64396,5.597648 -10.54447,9.108528 -18.05452,10.742677 -2.50307,0.544656 -10.0117,0.959841 -11.31371,0.625581 z"
         id="path475"
         transform="matrix(0.26458333,0,0,0.26458333,74.612503,83.34375)" />
      <path
         style="fill:none;stroke-width:0.353553"
         d="m 306.88434,73.85456 c -0.38891,-0.09984 -1.9799,-0.500243 -3.53553,-0.889774 -3.625,-0.907706 -8.79992,-3.356166 -11.81054,-5.588031 -6.32939,-4.69217 -10.66702,-11.337139 -12.65482,-19.386369 -0.92229,-3.734648 -0.83348,-11.755702 0.17464,-15.773538 3.18195,-12.681544 13.50316,-22.3724947 26.42074,-24.807377 4.05492,-0.7643266 10.09807,-0.5427342 14.13344,0.51825 3.78029,0.9939208 10.04457,4.101916 13.12405,6.511438 4.26321,3.335733 8.33608,9.564657 10.32431,15.789656 3.44117,10.7741 0.85698,23.018341 -6.80806,32.257487 -4.64396,5.597648 -10.54447,9.108528 -18.05452,10.742677 -2.50307,0.544656 -10.0117,0.959841 -11.31371,0.625581 z"
         id="path514"
         transform="matrix(0.26458333,0,0,0.26458333,74.612503,83.34375)" />
      <path
         style="fill:none;stroke-width:0.353553"
         d="m 306.88434,73.85456 c -0.38891,-0.09984 -1.9799,-0.500243 -3.53553,-0.889774 -3.625,-0.907706 -8.79992,-3.356166 -11.81054,-5.588031 -6.32939,-4.69217 -10.66702,-11.337139 -12.65482,-19.386369 -0.92229,-3.734648 -0.83348,-11.755702 0.17464,-15.773538 3.18195,-12.681544 13.50316,-22.3724947 26.42074,-24.807377 4.05492,-0.7643266 10.09807,-0.5427342 14.13344,0.51825 3.78029,0.9939208 10.04457,4.101916 13.12405,6.511438 4.26321,3.335733 8.33608,9.564657 10.32431,15.789656 3.44117,10.7741 0.85698,23.018341 -6.80806,32.257487 -4.64396,5.597648 -10.54447,9.108528 -18.05452,10.742677 -2.50307,0.544656 -10.0117,0.959841 -11.31371,0.625581 z"
         id="path553"
         transform="matrix(0.26458333,0,0,0.26458333,74.612503,83.34375)" />
      <path
         style="fill:none;stroke-width:0.353553"
         d="m 306.88434,73.85456 c -0.38891,-0.09984 -1.9799,-0.500243 -3.53553,-0.889774 -3.625,-0.907706 -8.79992,-3.356166 -11.81054,-5.588031 -6.32939,-4.69217 -10.66702,-11.337139 -12.65482,-19.386369 -0.92229,-3.734648 -0.83348,-11.755702 0.17464,-15.773538 3.18195,-12.681544 13.50316,-22.3724947 26.42074,-24.807377 4.05492,-0.7643266 10.09807,-0.5427342 14.13344,0.51825 3.78029,0.9939208 10.04457,4.101916 13.12405,6.511438 4.26321,3.335733 8.33608,9.564657 10.32431,15.789656 3.44117,10.7741 0.85698,23.018341 -6.80806,32.257487 -4.64396,5.597648 -10.54447,9.108528 -18.05452,10.742677 -2.50307,0.544656 -10.0117,0.959841 -11.31371,0.625581 z"
         id="path592"
         transform="matrix(0.26458333,0,0,0.26458333,74.612503,83.34375)" />
      <path
         style="fill:none;stroke-width:0.353553"
         d="m 306.88434,73.85456 c -0.38891,-0.09984 -1.9799,-0.500243 -3.53553,-0.889774 -3.625,-0.907706 -8.79992,-3.356166 -11.81054,-5.588031 -6.32939,-4.69217 -10.66702,-11.337139 -12.65482,-19.386369 -0.92229,-3.734648 -0.83348,-11.755702 0.17464,-15.773538 3.18195,-12.681544 13.50316,-22.3724947 26.42074,-24.807377 4.05492,-0.7643266 10.09807,-0.5427342 14.13344,0.51825 3.78029,0.9939208 10.04457,4.101916 13.12405,6.511438 4.26321,3.335733 8.33608,9.564657 10.32431,15.789656 3.44117,10.7741 0.85698,23.018341 -6.80806,32.257487 -4.64396,5.597648 -10.54447,9.108528 -18.05452,10.742677 -2.50307,0.544656 -10.0117,0.959841 -11.31371,0.625581 z"
         id="path631"
         transform="matrix(0.26458333,0,0,0.26458333,74.612503,83.34375)" />
      <path
         style="fill:none;stroke-width:0.353553"
         d="m 306.88434,73.85456 c -0.38891,-0.09984 -1.9799,-0.500243 -3.53553,-0.889774 -3.625,-0.907706 -8.79992,-3.356166 -11.81054,-5.588031 -6.32939,-4.69217 -10.66702,-11.337139 -12.65482,-19.386369 -0.92229,-3.734648 -0.83348,-11.755702 0.17464,-15.773538 3.18195,-12.681544 13.50316,-22.3724947 26.42074,-24.807377 4.05492,-0.7643266 10.09807,-0.5427342 14.13344,0.51825 3.78029,0.9939208 10.04457,4.101916 13.12405,6.511438 4.26321,3.335733 8.33608,9.564657 10.32431,15.789656 3.44117,10.7741 0.85698,23.018341 -6.80806,32.257487 -4.64396,5.597648 -10.54447,9.108528 -18.05452,10.742677 -2.50307,0.544656 -10.0117,0.959841 -11.31371,0.625581 z"
         id="path670"
         transform="matrix(0.26458333,0,0,0.26458333,74.612503,83.34375)" />
      <g
         id="g2060"
         transform="translate(-31.311237,-4.2508168)"
         inkscape:transform-center-x="-12.862404"
         inkscape:transform-center-y="-0.22565621">
        <path
           style="fill:#828383;stroke-width:0.264583"
           d="m 84.355286,115.99334 c 1.181592,-2.03896 4.13987,-5.45718 8.364108,-9.66452 l 5.120939,-5.10046 0.774257,0.80815 0.774258,0.80815 -5.017309,5.04053 c -2.962991,2.9767 -5.982069,5.73625 -7.373566,6.7397 -2.301258,1.65952 -3.030064,2.03691 -2.642687,1.36845 z"
           id="path2064" />
        <ellipse
           style="fill:#f02e65;fill-opacity:1;stroke:none;stroke-width:0.227836"
           id="path4581"
           cx="103.96024"
           cy="96.461548"
           rx="8.7843399"
           ry="8.5972509" />
      </g>
    </g>
  </g>
</svg>
