<?xml version="1.0" encoding="utf-8"?>
<!-- Generator: Adobe Illustrator 22.0.1, SVG Export Plug-In . SVG Version: 6.00 Build 0)  -->
<svg version="1.1" id="Layer_2" xmlns="http://www.w3.org/2000/svg" xmlns:xlink="http://www.w3.org/1999/xlink" x="0px" y="0px"
	 viewBox="0 0 128 128" style="enable-background:new 0 0 128 128;" xml:space="preserve">
<style type="text/css">
	.st0{fill:#F02E65;}
	.st1{fill:#FFFFFF;}
</style>
<rect x="0" class="st0" width="128" height="128"/>
<g>
	<path class="st1" d="M69.7,73c-1.6,0-3.8-0.1-6.6-0.2c-3.2-0.1-5.4-0.2-6.7-0.2c0,1.3,0.1,3.7,0.2,7.1c0.1,3,0.1,5.3,0.1,7.1
		c0,1.2-2.4,1.8-7.1,1.8c-4.6,0-6.8-0.4-6.8-1.2c0-1.9,0-4.4,0.1-7.5c0.1-4.2,0.2-6.7,0.2-7.5c-8.2,0.3-12.5,0.4-13,0.4
		c-0.6,0-0.8-0.5-0.8-1.5c0-0.3,0.2-2.1,0.5-5.3c0-1.9,0.1-3.8,0.2-5.8c0.3-0.5,0.7-0.7,1.3-0.7c1.5,0,3.5,0,6,0.1
		c3.3,0.1,5.2,0.2,6,0.2c-0.1-2.7-0.1-5.7-0.1-8.8v-5.1c0-0.6,0.4-0.9,1.2-0.9c1.2,0,2.9,0,5.1-0.1c2.3-0.1,4-0.1,5.1-0.1
		c1.5,0,2.3,0.3,2.3,0.8c0,1.6-0.1,3.9-0.2,7.1s-0.2,5.6-0.2,7.2c6.7-0.1,11.2-0.2,13.6-0.2c0.7,0,1,0.3,1,0.8
		c0,0.3-0.2,2.3-0.5,5.8c0.1,1.3,0,3.3-0.3,5.9C70.2,72.8,70,73,69.7,73z"/>
</g>
<g>
	<path class="st1" d="M98.3,97.9c0,0.8-0.4,1.5-1.1,2.2c-0.7,0.7-1.5,1-2.3,1c-2,0-5.1,0-9.1,0.1c-4.1,0-7.1,0.1-9.1,0.1
		c-1.6,0-2.3-0.7-2.3-2l0.1-0.7c0.6-16.2,0.9-26,0.9-29.4V50.3c0-1.2-0.3-1.8-0.8-1.8c-0.8,0-2.1,0.3-3.8,0.8
		c-1.7,0.5-3,0.8-3.9,0.8c-1.3,0-2-0.8-2-2.3c0-1.4,0-3.6-0.1-6.5c0-2.9-0.1-5.1-0.1-6.5c0-0.8,0.5-1.5,1.6-1.9
		c6.2-2.6,11.1-6.1,14.7-10.4c0.7-0.9,1.3-1.3,1.8-1.3c0.1,0,0.3,0,0.8,0.1c1.6,0.3,4,0.9,7.2,1.6c1.7,0.2,4.2,0.6,7.4,1.1
		c0.6,0.2,0.9,0.6,0.9,1.4c0,0.3,0,0.7-0.1,1.3c-0.5,3.7-0.7,12.8-0.7,27.4c0,4.9,0,12.2,0.1,22C98.3,85.7,98.3,93.1,98.3,97.9z"/>
</g>
</svg>
