<svg width="64" height="64" viewBox="0 0 64 64" fill="none" xmlns="http://www.w3.org/2000/svg">
<path d="M13.3333 56H50.6667C52.0812 56 53.4377 55.4381 54.4379 54.4379C55.4381 53.4377 56 52.0812 56 50.6667V13.3333C56 11.9188 55.4381 10.5623 54.4379 9.5621C53.4377 8.5619 52.0812 8 50.6667 8H13.3333C11.9188 8 10.5623 8.5619 9.5621 9.5621C8.5619 10.5623 8 11.9188 8 13.3333V50.6667C8 52.0812 8.5619 53.4377 9.5621 54.4379C10.5623 55.4381 11.9188 56 13.3333 56ZM32 18.6667L45.3333 32H34.6667V45.3333H29.3333V32H18.6667L32 18.6667Z" fill="#F02E65"/>
</svg>
