<svg width="128" height="128" viewBox="0 0 128 128" fill="none" xmlns="http://www.w3.org/2000/svg">
<path d="M26.6667 112H101.333C104.162 112 106.875 110.876 108.876 108.876C110.876 106.875 112 104.162 112 101.333V26.6667C112 23.8377 110.876 21.1246 108.876 19.1242C106.875 17.1238 104.162 16 101.333 16H26.6667C23.8377 16 21.1246 17.1238 19.1242 19.1242C17.1238 21.1246 16 23.8377 16 26.6667V101.333C16 104.162 17.1238 106.875 19.1242 108.876C21.1246 110.876 23.8377 112 26.6667 112ZM64 37.3333L90.6667 64H69.3333V90.6667H58.6667V64H37.3333L64 37.3333Z" fill="#F02E65"/>
</svg>
