<?xml version="1.0" encoding="utf-8"?>
<!-- Generator: Adobe Illustrator 23.1.1, SVG Export Plug-In . SVG Version: 6.00 Build 0)  -->
<svg version="1.1" id="Layer_1" xmlns="http://www.w3.org/2000/svg" xmlns:xlink="http://www.w3.org/1999/xlink" x="0px" y="0px"
	 viewBox="0 0 128 128" style="enable-background:new 0 0 128 128;" xml:space="preserve">
<style type="text/css">
	.st0{fill:#F02E65;}
</style>
<g>
	<path class="st0" d="M116.6,12.2c0,0.5,0,0.9,0,1.2c0,15.7,0,31.3,0,47c0,1.1-0.3,1.4-1.4,1.4c-13.1,0.1-26.2,0.1-39.3,0.3
		c-4.9,0.1-9.7-0.1-14.6,0.2c-1,0.1-1.2-0.3-1.2-1.2c0-13.1,0-26.2,0-39.3c0-1,0.4-1.3,1.2-1.4c9.1-1.4,18.3-2.8,27.4-4.2
		c7.8-1.1,15.6-2.2,23.3-3.3C113.5,12.7,115,12.4,116.6,12.2z"/>
	<path class="st0" d="M88.4,67.2c9,0,17.9,0,26.9,0c1,0,1.3,0.2,1.3,1.3c0,15.7,0,31.4,0,47.1c0,0.9,0,1.2-1.1,1.1
		c-5.3-0.9-10.6-1.7-15.8-2.4c-4.5-0.6-9-1.2-13.4-1.8c-5.2-0.7-10.4-1.4-15.5-2.1c-3.1-0.4-6.3-0.9-9.4-1.3c-1-0.1-1.1-0.4-1.1-1.3
		c0-6.9,0-13.9,0-20.8c0-6.1,0-12.2,0-18.3c0-1.1,0.3-1.3,1.3-1.3C70.4,67.2,79.4,67.2,88.4,67.2z"/>
	<path class="st0" d="M55.1,41.9c0,6.4,0,12.7,0,19.1c0,1.1-0.3,1.3-1.3,1.3c-5.1,0-10.2,0-15.2,0c-8.3,0.1-16.6,0.1-24.9,0.3
		c-1,0-1.3-0.2-1.3-1.3c0-11,0-22,0-33c0-0.8,0.1-1.3,1.1-1.4c4.6-0.6,9.3-1.4,13.9-2.1c4.7-0.7,9.4-1.3,14.1-1.9
		c3.9-0.5,7.9-0.9,11.8-1.3c1.9-0.2,1.9-0.1,1.9,1.9C55.1,29.6,55.1,35.8,55.1,41.9z"/>
	<path class="st0" d="M55.1,87.4c0,6.4,0,12.9,0,19.3c0,1.1-0.4,1.2-1.3,1.1c-7.1-1-14.2-2-21.3-2.9c-6.4-0.9-12.8-1.7-19.2-2.5
		c-0.7-0.1-1-0.3-1-1.1c0-11.2,0-22.5,0-33.7c0-1.1,0.6-0.9,1.2-0.9C24.7,66.9,35.8,67,46.9,67c2.3,0,4.6-0.1,6.9-0.2
		c0.9,0,1.2,0.2,1.2,1.2C55.1,74.5,55.1,80.9,55.1,87.4z"/>
</g>
</svg>
